<svg width="18" height="18" viewBox="0 0 18 18" fill="none" xmlns="http://www.w3.org/2000/svg">
<g id="vuesax/linear/3d-square">
<g id="3d-square">
<path id="Vector" d="M6.75 16.5H11.25C15 16.5 16.5 15 16.5 11.25V6.75C16.5 3 15 1.5 11.25 1.5H6.75C3 1.5 1.5 3 1.5 6.75V11.25C1.5 15 3 16.5 6.75 16.5Z" stroke="#606060" stroke-width="1.5" stroke-linecap="round" stroke-linejoin="round"/>
<g id="Group">
<g id="Group_2">
<path id="Vector_2" d="M5.0249 6.94501L8.99989 9.24751L12.9449 6.96" stroke="#606060" stroke-width="1.5" stroke-linecap="round" stroke-linejoin="round"/>
<path id="Vector_3" d="M9 13.3275V9.23999" stroke="#606060" stroke-width="1.5" stroke-linecap="round" stroke-linejoin="round"/>
</g>
<path id="Vector_4" d="M8.06995 4.71751L5.66994 6.05251C5.12994 6.35251 4.67993 7.11001 4.67993 7.73251V10.275C4.67993 10.8975 5.12244 11.655 5.66994 11.955L8.06995 13.29C8.57995 13.575 9.41994 13.575 9.93744 13.29L12.3374 11.955C12.8774 11.655 13.3274 10.8975 13.3274 10.275V7.72502C13.3274 7.10252 12.8849 6.34501 12.3374 6.04501L9.93744 4.71001C9.41994 4.42501 8.57995 4.42501 8.06995 4.71751Z" stroke="#606060" stroke-width="1.5" stroke-linecap="round" stroke-linejoin="round"/>
</g>
</g>
</g>
</svg>
