<svg width="24" height="24" viewBox="0 0 24 24" fill="none" xmlns="http://www.w3.org/2000/svg">
<rect width="24" height="24" fill="#1E1E1E"/>
<g id="Single activity section">
<path d="M-333 -427C-333 -428.105 -332.105 -429 -331 -429H858C859.105 -429 860 -428.105 860 -427V1670C860 1671.1 859.105 1672 858 1672H-331C-332.105 1672 -333 1671.1 -333 1670V-427Z" fill="#404040"/>
<g id="Card" filter="url(#filter0_ddd_0_1)">
<g clip-path="url(#clip0_0_1)">
<rect x="-212" y="-273" width="448" height="840" rx="20" fill="white"/>
<g id="Vector">
<mask id="path-5-inside-1_0_1" fill="white">
<path d="M-212 -273H-184.232V-245.17H-212V-273Z"/>
<path d="M-184.863 -273H-157.095V-245.17H-184.863V-273Z"/>
<path d="M-157.726 -273H-129.958V-245.17H-157.726V-273Z"/>
<path d="M-130.589 -273H-102.821V-245.17L-130.589 -245.17V-273Z"/>
<path d="M-103.452 -273H-75.6844V-245.17H-103.452V-273Z"/>
<path d="M-76.3156 -273H-48.5476V-245.17H-76.3156V-273Z"/>
<path d="M-49.1786 -273L-21.4107 -273V-245.17H-49.1786V-273Z"/>
<path d="M-22.0418 -273H5.72621V-245.17H-22.0418V-273Z"/>
<path d="M5.09512 -273H32.8631V-245.17H5.09512V-273Z"/>
<path d="M32.232 -273H60V-245.17L32.232 -245.17V-273Z"/>
<path d="M-212 -245.803H-184.232V-217.973H-212V-245.803Z"/>
<path d="M-184.863 -245.803H-157.095V-217.973H-184.863V-245.803Z"/>
<path d="M-157.726 -245.803H-129.958V-217.973H-157.726V-245.803Z"/>
<path d="M-130.589 -245.803L-102.821 -245.803L-102.821 -217.973H-130.589V-245.803Z"/>
<path d="M-103.452 -245.803H-75.6844V-217.973L-103.452 -217.973L-103.452 -245.803Z"/>
<path d="M-76.3156 -245.803H-48.5476V-217.973H-76.3156V-245.803Z"/>
<path d="M-49.1786 -245.803H-21.4107V-217.973H-49.1786V-245.803Z"/>
<path d="M-22.0418 -245.803H5.72621V-217.973H-22.0418V-245.803Z"/>
<path d="M5.09512 -245.803H32.8631V-217.973L5.09512 -217.973V-245.803Z"/>
<path d="M32.232 -245.803L60 -245.803V-217.973H32.232V-245.803Z"/>
<path d="M-212 -218.605H-184.232V-190.776H-212V-218.605Z"/>
<path d="M-184.863 -218.605H-157.095V-190.776H-184.863V-218.605Z"/>
<path d="M-157.726 -218.605H-129.958V-190.776H-157.726V-218.605Z"/>
<path d="M-130.589 -218.605H-102.821V-190.776H-130.589V-218.605Z"/>
<path d="M-103.452 -218.605L-75.6844 -218.605V-190.776L-103.452 -190.776V-218.605Z"/>
<path d="M-76.3156 -218.605H-48.5476V-190.776H-76.3156V-218.605Z"/>
<path d="M-49.1786 -218.605H-21.4107V-190.776H-49.1786V-218.605Z"/>
<path d="M-22.0418 -218.605H5.72621V-190.776H-22.0418V-218.605Z"/>
<path d="M5.09512 -218.605L32.8631 -218.605V-190.776L5.09512 -190.776V-218.605Z"/>
<path d="M32.232 -218.605H60V-190.776H32.232V-218.605Z"/>
<path d="M-212 -191.408H-184.232L-184.232 -163.578H-212L-212 -191.408Z"/>
<path d="M-184.863 -191.408H-157.095V-163.578H-184.863L-184.863 -191.408Z"/>
<path d="M-157.726 -191.408H-129.958V-163.578H-157.726V-191.408Z"/>
<path d="M-130.589 -191.408H-102.821V-163.578H-130.589V-191.408Z"/>
<path d="M-103.452 -191.408L-75.6844 -191.408L-75.6844 -163.578L-103.452 -163.578V-191.408Z"/>
<path d="M-76.3156 -191.408H-48.5476L-48.5476 -163.578H-76.3156L-76.3156 -191.408Z"/>
<path d="M-49.1786 -191.408H-21.4107L-21.4107 -163.578H-49.1786L-49.1786 -191.408Z"/>
<path d="M-22.0418 -191.408H5.72621L5.72621 -163.578H-22.0418L-22.0418 -191.408Z"/>
<path d="M5.09512 -191.408L32.8631 -191.408L32.8631 -163.578L5.09512 -163.578L5.09512 -191.408Z"/>
<path d="M32.232 -191.408H60V-163.578H32.232L32.232 -191.408Z"/>
<path d="M-212 -164.211H-184.232V-136.381H-212V-164.211Z"/>
<path d="M-184.863 -164.211H-157.095L-157.095 -136.381H-184.863V-164.211Z"/>
<path d="M-157.726 -164.211H-129.958L-129.958 -136.381H-157.726L-157.726 -164.211Z"/>
<path d="M-130.589 -164.211H-102.821L-102.821 -136.381L-130.589 -136.381L-130.589 -164.211Z"/>
<path d="M-103.452 -164.211L-75.6844 -164.211V-136.381H-103.452L-103.452 -164.211Z"/>
<path d="M-76.3156 -164.211H-48.5476V-136.381H-76.3156V-164.211Z"/>
<path d="M-49.1786 -164.211H-21.4107V-136.381H-49.1786V-164.211Z"/>
<path d="M-22.0418 -164.211H5.72621V-136.381H-22.0418V-164.211Z"/>
<path d="M5.09512 -164.211L32.8631 -164.211V-136.381H5.09512V-164.211Z"/>
<path d="M32.232 -164.211H60V-136.381L32.232 -136.381V-164.211Z"/>
<path d="M-212 -137.014H-184.232V-109.184H-212V-137.014Z"/>
<path d="M-184.863 -137.014H-157.095V-109.184H-184.863V-137.014Z"/>
<path d="M-157.726 -137.014H-129.958V-109.184H-157.726V-137.014Z"/>
<path d="M-130.589 -137.014L-102.821 -137.014V-109.184L-130.589 -109.184V-137.014Z"/>
<path d="M-103.452 -137.014H-75.6844V-109.184H-103.452V-137.014Z"/>
<path d="M-76.3156 -137.014H-48.5476V-109.184H-76.3156V-137.014Z"/>
<path d="M-49.1786 -137.014H-21.4107V-109.184H-49.1786V-137.014Z"/>
<path d="M-22.0418 -137.014H5.72621V-109.184H-22.0418V-137.014Z"/>
<path d="M5.09512 -137.014H32.8631V-109.184H5.09512V-137.014Z"/>
<path d="M32.232 -137.014L60 -137.014V-109.184L32.232 -109.184V-137.014Z"/>
<path d="M-212 -109.816H-184.232V-81.9865H-212V-109.816Z"/>
<path d="M-184.863 -109.816H-157.095V-81.9865H-184.863V-109.816Z"/>
<path d="M-157.726 -109.816H-129.958V-81.9865H-157.726V-109.816Z"/>
<path d="M-130.589 -109.816L-102.821 -109.816V-81.9865L-130.589 -81.9865V-109.816Z"/>
<path d="M-103.452 -109.816H-75.6844V-81.9865H-103.452V-109.816Z"/>
<path d="M-76.3156 -109.816H-48.5476V-81.9865H-76.3156V-109.816Z"/>
<path d="M-49.1786 -109.816H-21.4107V-81.9865H-49.1786V-109.816Z"/>
<path d="M-22.0418 -109.816H5.72621V-81.9865H-22.0418V-109.816Z"/>
<path d="M5.09512 -109.816H32.8631V-81.9865H5.09512V-109.816Z"/>
<path d="M32.232 -109.816L60 -109.816L60 -81.9865L32.232 -81.9865V-109.816Z"/>
<path d="M-212 -82.619H-184.232V-54.7892H-212V-82.619Z"/>
<path d="M-184.863 -82.619H-157.095V-54.7892H-184.863V-82.619Z"/>
<path d="M-157.726 -82.619H-129.958V-54.7892H-157.726V-82.619Z"/>
<path d="M-130.589 -82.619L-102.821 -82.619V-54.7892L-130.589 -54.7892V-82.619Z"/>
<path d="M-103.452 -82.619H-75.6844V-54.7892H-103.452V-82.619Z"/>
<path d="M-76.3156 -82.619H-48.5476V-54.7892H-76.3156V-82.619Z"/>
<path d="M-49.1786 -82.619H-21.4107V-54.7892H-49.1786V-82.619Z"/>
<path d="M-22.0418 -82.619H5.72621V-54.7892H-22.0418V-82.619Z"/>
<path d="M5.09512 -82.619H32.8631V-54.7892H5.09512V-82.619Z"/>
<path d="M32.232 -82.619L60 -82.619V-54.7892L32.232 -54.7892V-82.619Z"/>
<path d="M-212 -55.4217H-184.232V-27.5919H-212V-55.4217Z"/>
<path d="M-184.863 -55.4217H-157.095L-157.095 -27.5919H-184.863V-55.4217Z"/>
<path d="M-157.726 -55.4217H-129.958L-129.958 -27.5919H-157.726L-157.726 -55.4217Z"/>
<path d="M-130.589 -55.4217L-102.821 -55.4217L-102.821 -27.5919L-130.589 -27.5919L-130.589 -55.4217Z"/>
<path d="M-103.452 -55.4217H-75.6844V-27.5919H-103.452L-103.452 -55.4217Z"/>
<path d="M-76.3156 -55.4217H-48.5476V-27.5919H-76.3156V-55.4217Z"/>
<path d="M-49.1786 -55.4217H-21.4107V-27.5919H-49.1786V-55.4217Z"/>
<path d="M-22.0418 -55.4217H5.72621V-27.5919H-22.0418V-55.4217Z"/>
<path d="M5.09512 -55.4217H32.8631V-27.5919H5.09512V-55.4217Z"/>
<path d="M32.232 -55.4217L60 -55.4217V-27.5919L32.232 -27.5919V-55.4217Z"/>
<path d="M-212 -28.2244H-184.232L-184.232 -0.394592H-212L-212 -28.2244Z"/>
<path d="M-184.863 -28.2244H-157.095V-0.394592H-184.863L-184.863 -28.2244Z"/>
<path d="M-157.726 -28.2244H-129.958V-0.394592H-157.726V-28.2244Z"/>
<path d="M-130.589 -28.2244L-102.821 -28.2244V-0.394592H-130.589V-28.2244Z"/>
<path d="M-103.452 -28.2244H-75.6844L-75.6844 -0.394592H-103.452V-28.2244Z"/>
<path d="M-76.3156 -28.2244H-48.5476L-48.5476 -0.394592H-76.3156L-76.3156 -28.2244Z"/>
<path d="M-49.1786 -28.2244H-21.4107L-21.4107 -0.394592L-49.1786 -0.394592L-49.1786 -28.2244Z"/>
<path d="M-22.0418 -28.2244H5.72621L5.72621 -0.394592H-22.0418L-22.0418 -28.2244Z"/>
<path d="M5.09512 -28.2244H32.8631L32.8631 -0.394592H5.09512L5.09512 -28.2244Z"/>
<path d="M32.232 -28.2244L60 -28.2244V-0.394592H32.232L32.232 -28.2244Z"/>
<path d="M-212 -1.0271H-184.232V26.8027H-212V-1.0271Z"/>
<path d="M-184.863 -1.0271H-157.095V26.8027H-184.863V-1.0271Z"/>
<path d="M-157.726 -1.0271H-129.958V26.8027H-157.726V-1.0271Z"/>
<path d="M-130.589 -1.0271H-102.821V26.8027H-130.589V-1.0271Z"/>
<path d="M-103.452 -1.0271H-75.6844V26.8027H-103.452V-1.0271Z"/>
<path d="M-76.3156 -1.0271H-48.5476V26.8027H-76.3156V-1.0271Z"/>
<path d="M-49.1786 -1.0271L-21.4107 -1.0271V26.8027L-49.1786 26.8027V-1.0271Z"/>
<path d="M-22.0418 -1.0271H5.72621V26.8027H-22.0418V-1.0271Z"/>
<path d="M5.09512 -1.0271H32.8631V26.8027H5.09512V-1.0271Z"/>
<path d="M32.232 -1.0271H60V26.8027H32.232V-1.0271Z"/>
<path d="M-212 26.1702H-184.232V54H-212V26.1702Z"/>
<path d="M-184.863 26.1702H-157.095V54H-184.863V26.1702Z"/>
<path d="M-157.726 26.1702H-129.958V54H-157.726V26.1702Z"/>
<path d="M-130.589 26.1702H-102.821L-102.821 54H-130.589V26.1702Z"/>
<path d="M-103.452 26.1702H-75.6844V54H-103.452L-103.452 26.1702Z"/>
<path d="M-76.3156 26.1702H-48.5476V54H-76.3156V26.1702Z"/>
<path d="M-49.1786 26.1702L-21.4107 26.1702V54L-49.1786 54V26.1702Z"/>
<path d="M-22.0418 26.1702H5.72621V54H-22.0418V26.1702Z"/>
<path d="M5.09512 26.1702H32.8631V54H5.09512V26.1702Z"/>
<path d="M32.232 26.1702H60V54H32.232V26.1702Z"/>
</mask>
<path d="M59.5205 -245.17V-273H59.2173V-245.17H59.5205ZM59.5205 -217.973V-245.803H59.2173V-217.973H59.5205ZM59.5205 -190.776V-218.605H59.2173V-190.776H59.5205ZM59.5205 -163.578V-191.408H59.2173V-163.578H59.5205ZM59.5205 -136.381V-164.211H59.2173V-136.381H59.5205ZM59.5205 -109.184V-137.014H59.2173V-109.184H59.5205ZM59.5205 -81.9865L59.5205 -109.816H59.2173L59.2173 -81.9865H59.5205ZM59.5205 -54.7892V-82.619H59.2173V-54.7892H59.5205ZM59.5205 -27.5919V-55.4217H59.2173V-27.5919H59.5205ZM59.5205 -0.394592V-28.2244H59.2173V-0.394592H59.5205ZM59.5205 26.8027V-1.0271H59.2173V26.8027H59.5205ZM59.5205 54V26.1702H59.2173V54H59.5205ZM-212 -273V-273.303H-212.303V-273H-212ZM-184.232 -273H-183.929V-273.303H-184.232V-273ZM-184.232 -245.17V-244.867H-183.929V-245.17H-184.232ZM-212 -245.17H-212.303V-244.867H-212V-245.17ZM-184.863 -273V-273.303H-185.166V-273H-184.863ZM-157.095 -273H-156.792V-273.303H-157.095V-273ZM-157.095 -245.17V-244.867H-156.792V-245.17H-157.095ZM-184.863 -245.17H-185.166V-244.867H-184.863V-245.17ZM-157.726 -273V-273.303H-158.029V-273H-157.726ZM-129.958 -273H-129.655V-273.303H-129.958V-273ZM-129.958 -245.17V-244.867H-129.655V-245.17H-129.958ZM-157.726 -245.17H-158.029V-244.867H-157.726V-245.17ZM-130.589 -273V-273.303H-130.893V-273H-130.589ZM-102.821 -273H-102.518V-273.303H-102.821V-273ZM-102.821 -245.17V-244.867H-102.518V-245.17H-102.821ZM-130.589 -245.17H-130.893V-244.867H-130.589V-245.17ZM-103.452 -273V-273.303H-103.756V-273H-103.452ZM-75.6844 -273H-75.3812V-273.303H-75.6844V-273ZM-75.6844 -245.17V-244.867H-75.3812V-245.17H-75.6844ZM-103.452 -245.17H-103.756V-244.867H-103.452V-245.17ZM-76.3156 -273V-273.303H-76.6188V-273H-76.3156ZM-48.5476 -273H-48.2443V-273.303H-48.5476V-273ZM-48.5476 -245.17V-244.867H-48.2443V-245.17H-48.5476ZM-76.3156 -245.17H-76.6188V-244.867H-76.3156V-245.17ZM-49.1786 -273V-273.303H-49.4819V-273H-49.1786ZM-21.4107 -273H-21.1074V-273.303H-21.4107V-273ZM-21.4107 -245.17V-244.867H-21.1074V-245.17H-21.4107ZM-49.1786 -245.17H-49.4819V-244.867H-49.1786V-245.17ZM-22.0418 -273V-273.303H-22.345V-273H-22.0418ZM5.72621 -273H6.02946V-273.303H5.72621V-273ZM5.72621 -245.17V-244.867H6.02946V-245.17H5.72621ZM-22.0418 -245.17H-22.345V-244.867H-22.0418V-245.17ZM5.09512 -273V-273.303H4.79189V-273H5.09512ZM32.8631 -273H33.1664V-273.303H32.8631V-273ZM32.8631 -245.17V-244.867H33.1664V-245.17H32.8631ZM5.09512 -245.17H4.79189V-244.867H5.09512V-245.17ZM32.232 -273V-273.303H31.9288V-273H32.232ZM60 -273H60.3032V-273.303H60V-273ZM60 -245.17V-244.867H60.3032V-245.17H60ZM32.232 -245.17H31.9288V-244.867H32.232V-245.17ZM-212 -245.803V-246.106H-212.303V-245.803H-212ZM-184.232 -245.803H-183.929V-246.106H-184.232V-245.803ZM-184.232 -217.973V-217.67H-183.929V-217.973H-184.232ZM-212 -217.973H-212.303V-217.67H-212V-217.973ZM-184.863 -245.803V-246.106H-185.166V-245.803H-184.863ZM-157.095 -245.803H-156.792V-246.106H-157.095V-245.803ZM-157.095 -217.973V-217.67H-156.792V-217.973H-157.095ZM-184.863 -217.973H-185.166V-217.67H-184.863V-217.973ZM-157.726 -245.803V-246.106H-158.029V-245.803H-157.726ZM-129.958 -245.803H-129.655V-246.106H-129.958V-245.803ZM-129.958 -217.973V-217.67H-129.655V-217.973H-129.958ZM-157.726 -217.973H-158.029V-217.67H-157.726V-217.973ZM-130.589 -245.803V-246.106H-130.893V-245.803H-130.589ZM-102.821 -245.803H-102.518V-246.106H-102.821V-245.803ZM-102.821 -217.973V-217.67H-102.518V-217.973H-102.821ZM-130.589 -217.973H-130.893V-217.67H-130.589V-217.973ZM-103.452 -245.803V-246.106H-103.756V-245.803H-103.452ZM-75.6844 -245.803H-75.3812V-246.106H-75.6844V-245.803ZM-75.6844 -217.973V-217.67H-75.3812V-217.973H-75.6844ZM-103.452 -217.973H-103.756V-217.67H-103.452V-217.973ZM-76.3156 -245.803V-246.106H-76.6188V-245.803H-76.3156ZM-48.5476 -245.803H-48.2443V-246.106H-48.5476V-245.803ZM-48.5476 -217.973V-217.67H-48.2443V-217.973H-48.5476ZM-76.3156 -217.973H-76.6188V-217.67H-76.3156V-217.973ZM-49.1786 -245.803V-246.106H-49.4819V-245.803H-49.1786ZM-21.4107 -245.803H-21.1074V-246.106H-21.4107V-245.803ZM-21.4107 -217.973V-217.67H-21.1074V-217.973H-21.4107ZM-49.1786 -217.973H-49.4819V-217.67H-49.1786V-217.973ZM-22.0418 -245.803V-246.106H-22.345V-245.803H-22.0418ZM5.72621 -245.803H6.02946V-246.106H5.72621V-245.803ZM5.72621 -217.973V-217.67H6.02946V-217.973H5.72621ZM-22.0418 -217.973H-22.345V-217.67H-22.0418V-217.973ZM5.09512 -245.803V-246.106H4.79189V-245.803H5.09512ZM32.8631 -245.803H33.1664V-246.106H32.8631V-245.803ZM32.8631 -217.973V-217.67H33.1664V-217.973H32.8631ZM5.09512 -217.973H4.79189V-217.67H5.09512V-217.973ZM32.232 -245.803V-246.106H31.9288V-245.803H32.232ZM60 -245.803H60.3032V-246.106H60V-245.803ZM60 -217.973V-217.67H60.3032V-217.973H60ZM32.232 -217.973H31.9288V-217.67H32.232V-217.973ZM-212 -218.605V-218.909H-212.303V-218.605H-212ZM-184.232 -218.605H-183.929V-218.909H-184.232V-218.605ZM-184.232 -190.776V-190.472H-183.929V-190.776H-184.232ZM-212 -190.776H-212.303V-190.472H-212V-190.776ZM-184.863 -218.605V-218.909H-185.166V-218.605H-184.863ZM-157.095 -218.605H-156.792V-218.909H-157.095V-218.605ZM-157.095 -190.776V-190.472H-156.792V-190.776H-157.095ZM-184.863 -190.776H-185.166V-190.472H-184.863V-190.776ZM-157.726 -218.605V-218.909H-158.029V-218.605H-157.726ZM-129.958 -218.605H-129.655V-218.909H-129.958V-218.605ZM-129.958 -190.776V-190.472H-129.655V-190.776H-129.958ZM-157.726 -190.776H-158.029V-190.472H-157.726V-190.776ZM-130.589 -218.605V-218.909H-130.893V-218.605H-130.589ZM-102.821 -218.605H-102.518V-218.909H-102.821V-218.605ZM-102.821 -190.776V-190.472H-102.518V-190.776H-102.821ZM-130.589 -190.776H-130.893V-190.472H-130.589V-190.776ZM-103.452 -218.605V-218.909H-103.756V-218.605H-103.452ZM-75.6844 -218.605H-75.3812V-218.909H-75.6844V-218.605ZM-75.6844 -190.776V-190.472H-75.3812V-190.776H-75.6844ZM-103.452 -190.776H-103.756V-190.472H-103.452V-190.776ZM-76.3156 -218.605V-218.909H-76.6188V-218.605H-76.3156ZM-48.5476 -218.605H-48.2443V-218.909H-48.5476V-218.605ZM-48.5476 -190.776V-190.472H-48.2443V-190.776H-48.5476ZM-76.3156 -190.776H-76.6188V-190.472H-76.3156V-190.776ZM-49.1786 -218.605V-218.909H-49.4819V-218.605H-49.1786ZM-21.4107 -218.605H-21.1074V-218.909H-21.4107V-218.605ZM-21.4107 -190.776V-190.472H-21.1074V-190.776H-21.4107ZM-49.1786 -190.776H-49.4819V-190.472H-49.1786V-190.776ZM-22.0418 -218.605V-218.909H-22.345V-218.605H-22.0418ZM5.72621 -218.605H6.02946V-218.909H5.72621V-218.605ZM5.72621 -190.776V-190.472H6.02946V-190.776H5.72621ZM-22.0418 -190.776H-22.345V-190.472H-22.0418V-190.776ZM5.09512 -218.605V-218.909H4.79189V-218.605H5.09512ZM32.8631 -218.605H33.1664V-218.909H32.8631V-218.605ZM32.8631 -190.776V-190.472H33.1664V-190.776H32.8631ZM5.09512 -190.776H4.79189V-190.472H5.09512V-190.776ZM32.232 -218.605V-218.909H31.9288V-218.605H32.232ZM60 -218.605H60.3032V-218.909H60V-218.605ZM60 -190.776V-190.472H60.3032V-190.776H60ZM32.232 -190.776H31.9288V-190.472H32.232V-190.776ZM-212 -191.408V-191.711H-212.303V-191.408H-212ZM-184.232 -191.408H-183.929V-191.711H-184.232V-191.408ZM-184.232 -163.578V-163.275H-183.929V-163.578H-184.232ZM-212 -163.578H-212.303V-163.275H-212V-163.578ZM-184.863 -191.408V-191.711H-185.166V-191.408H-184.863ZM-157.095 -191.408H-156.792V-191.711H-157.095V-191.408ZM-157.095 -163.578V-163.275H-156.792V-163.578H-157.095ZM-184.863 -163.578H-185.166V-163.275H-184.863V-163.578ZM-157.726 -191.408V-191.711H-158.029V-191.408H-157.726ZM-129.958 -191.408H-129.655V-191.711H-129.958V-191.408ZM-129.958 -163.578V-163.275H-129.655V-163.578H-129.958ZM-157.726 -163.578H-158.029V-163.275H-157.726V-163.578ZM-130.589 -191.408V-191.711H-130.893V-191.408H-130.589ZM-102.821 -191.408H-102.518V-191.711H-102.821V-191.408ZM-102.821 -163.578V-163.275H-102.518V-163.578H-102.821ZM-130.589 -163.578H-130.893V-163.275H-130.589V-163.578ZM-103.452 -191.408V-191.711H-103.756V-191.408H-103.452ZM-75.6844 -191.408H-75.3812V-191.711H-75.6844V-191.408ZM-75.6844 -163.578V-163.275H-75.3812V-163.578H-75.6844ZM-103.452 -163.578H-103.756V-163.275H-103.452V-163.578ZM-76.3156 -191.408V-191.711H-76.6188V-191.408H-76.3156ZM-48.5476 -191.408H-48.2443V-191.711H-48.5476V-191.408ZM-48.5476 -163.578V-163.275H-48.2443V-163.578H-48.5476ZM-76.3156 -163.578H-76.6188V-163.275H-76.3156V-163.578ZM-49.1786 -191.408V-191.711H-49.4819V-191.408H-49.1786ZM-21.4107 -191.408H-21.1074V-191.711H-21.4107V-191.408ZM-21.4107 -163.578V-163.275H-21.1074V-163.578H-21.4107ZM-49.1786 -163.578H-49.4819V-163.275H-49.1786V-163.578ZM-22.0418 -191.408V-191.711H-22.345V-191.408H-22.0418ZM5.72621 -191.408H6.02946V-191.711H5.72621V-191.408ZM5.72621 -163.578V-163.275H6.02946V-163.578H5.72621ZM-22.0418 -163.578H-22.345V-163.275H-22.0418V-163.578ZM5.09512 -191.408V-191.711H4.79189V-191.408H5.09512ZM32.8631 -191.408H33.1664V-191.711H32.8631V-191.408ZM32.8631 -163.578V-163.275H33.1664V-163.578H32.8631ZM5.09512 -163.578H4.79189V-163.275H5.09512V-163.578ZM32.232 -191.408V-191.711H31.9288V-191.408H32.232ZM60 -191.408H60.3032V-191.711H60V-191.408ZM60 -163.578V-163.275H60.3032V-163.578H60ZM32.232 -163.578H31.9288V-163.275H32.232V-163.578ZM-212 -164.211V-164.514H-212.303V-164.211H-212ZM-184.232 -164.211H-183.929V-164.514H-184.232V-164.211ZM-184.232 -136.381V-136.078H-183.929V-136.381H-184.232ZM-212 -136.381H-212.303V-136.078H-212V-136.381ZM-184.863 -164.211V-164.514H-185.166V-164.211H-184.863ZM-157.095 -164.211H-156.792V-164.514H-157.095V-164.211ZM-157.095 -136.381V-136.078H-156.792V-136.381H-157.095ZM-184.863 -136.381H-185.166V-136.078H-184.863V-136.381ZM-157.726 -164.211V-164.514H-158.029V-164.211H-157.726ZM-129.958 -164.211H-129.655V-164.514H-129.958V-164.211ZM-129.958 -136.381V-136.078H-129.655V-136.381H-129.958ZM-157.726 -136.381H-158.029V-136.078H-157.726V-136.381ZM-130.589 -164.211V-164.514H-130.893V-164.211H-130.589ZM-102.821 -164.211H-102.518V-164.514H-102.821V-164.211ZM-102.821 -136.381V-136.078H-102.518V-136.381H-102.821ZM-130.589 -136.381H-130.893V-136.078H-130.589V-136.381ZM-103.452 -164.211V-164.514H-103.756V-164.211H-103.452ZM-75.6844 -164.211H-75.3812V-164.514H-75.6844V-164.211ZM-75.6844 -136.381V-136.078H-75.3812V-136.381H-75.6844ZM-103.452 -136.381H-103.756V-136.078H-103.452V-136.381ZM-76.3156 -164.211V-164.514H-76.6188V-164.211H-76.3156ZM-48.5476 -164.211H-48.2443V-164.514H-48.5476V-164.211ZM-48.5476 -136.381V-136.078H-48.2443V-136.381H-48.5476ZM-76.3156 -136.381H-76.6188V-136.078H-76.3156V-136.381ZM-49.1786 -164.211V-164.514H-49.4819V-164.211H-49.1786ZM-21.4107 -164.211H-21.1074V-164.514H-21.4107V-164.211ZM-21.4107 -136.381V-136.078H-21.1074V-136.381H-21.4107ZM-49.1786 -136.381H-49.4819V-136.078H-49.1786V-136.381ZM-22.0418 -164.211V-164.514H-22.345V-164.211H-22.0418ZM5.72621 -164.211H6.02946V-164.514H5.72621V-164.211ZM5.72621 -136.381V-136.078H6.02946V-136.381H5.72621ZM-22.0418 -136.381H-22.345V-136.078H-22.0418V-136.381ZM5.09512 -164.211V-164.514H4.79189V-164.211H5.09512ZM32.8631 -164.211H33.1664V-164.514H32.8631V-164.211ZM32.8631 -136.381V-136.078H33.1664V-136.381H32.8631ZM5.09512 -136.381H4.79189V-136.078H5.09512V-136.381ZM32.232 -164.211V-164.514H31.9288V-164.211H32.232ZM60 -164.211H60.3032V-164.514H60V-164.211ZM60 -136.381V-136.078H60.3032V-136.381H60ZM32.232 -136.381H31.9288V-136.078H32.232V-136.381ZM-212 -137.014V-137.317H-212.303V-137.014H-212ZM-184.232 -137.014H-183.929V-137.317H-184.232V-137.014ZM-184.232 -109.184V-108.881H-183.929V-109.184H-184.232ZM-212 -109.184H-212.303V-108.881H-212V-109.184ZM-184.863 -137.014V-137.317H-185.166V-137.014H-184.863ZM-157.095 -137.014H-156.792V-137.317H-157.095V-137.014ZM-157.095 -109.184V-108.881H-156.792V-109.184H-157.095ZM-184.863 -109.184H-185.166V-108.881H-184.863V-109.184ZM-157.726 -137.014V-137.317H-158.029V-137.014H-157.726ZM-129.958 -137.014H-129.655V-137.317H-129.958V-137.014ZM-129.958 -109.184V-108.881H-129.655V-109.184H-129.958ZM-157.726 -109.184H-158.029V-108.881H-157.726V-109.184ZM-130.589 -137.014V-137.317H-130.893V-137.014H-130.589ZM-102.821 -137.014H-102.518V-137.317H-102.821V-137.014ZM-102.821 -109.184V-108.881H-102.518V-109.184H-102.821ZM-130.589 -109.184H-130.893V-108.881H-130.589V-109.184ZM-103.452 -137.014V-137.317H-103.756V-137.014H-103.452ZM-75.6844 -137.014H-75.3812V-137.317H-75.6844V-137.014ZM-75.6844 -109.184V-108.881H-75.3812V-109.184H-75.6844ZM-103.452 -109.184H-103.756V-108.881H-103.452V-109.184ZM-76.3156 -137.014V-137.317H-76.6188V-137.014H-76.3156ZM-48.5476 -137.014H-48.2443V-137.317H-48.5476V-137.014ZM-48.5476 -109.184V-108.881H-48.2443V-109.184H-48.5476ZM-76.3156 -109.184H-76.6188V-108.881H-76.3156V-109.184ZM-49.1786 -137.014V-137.317H-49.4819V-137.014H-49.1786ZM-21.4107 -137.014H-21.1074V-137.317H-21.4107V-137.014ZM-21.4107 -109.184V-108.881H-21.1074V-109.184H-21.4107ZM-49.1786 -109.184H-49.4819V-108.881H-49.1786V-109.184ZM-22.0418 -137.014V-137.317H-22.345V-137.014H-22.0418ZM5.72621 -137.014H6.02946V-137.317H5.72621V-137.014ZM5.72621 -109.184V-108.881H6.02946V-109.184H5.72621ZM-22.0418 -109.184H-22.345V-108.881H-22.0418V-109.184ZM5.09512 -137.014V-137.317H4.79189V-137.014H5.09512ZM32.8631 -137.014H33.1664V-137.317H32.8631V-137.014ZM32.8631 -109.184V-108.881H33.1664V-109.184H32.8631ZM5.09512 -109.184H4.79189V-108.881H5.09512V-109.184ZM32.232 -137.014V-137.317H31.9288V-137.014H32.232ZM60 -137.014H60.3032V-137.317H60V-137.014ZM60 -109.184V-108.881H60.3032V-109.184H60ZM32.232 -109.184H31.9288V-108.881H32.232V-109.184ZM-212 -109.816V-110.119H-212.303V-109.816H-212ZM-184.232 -109.816H-183.929V-110.119H-184.232V-109.816ZM-184.232 -81.9865V-81.6832H-183.929V-81.9865H-184.232ZM-212 -81.9865H-212.303V-81.6832H-212V-81.9865ZM-184.863 -109.816V-110.119H-185.166V-109.816H-184.863ZM-157.095 -109.816H-156.792V-110.119H-157.095V-109.816ZM-157.095 -81.9865V-81.6832H-156.792V-81.9865H-157.095ZM-184.863 -81.9865H-185.166V-81.6832H-184.863V-81.9865ZM-157.726 -109.816V-110.119H-158.029V-109.816H-157.726ZM-129.958 -109.816H-129.655V-110.119H-129.958V-109.816ZM-129.958 -81.9865V-81.6832H-129.655V-81.9865H-129.958ZM-157.726 -81.9865H-158.029V-81.6832H-157.726V-81.9865ZM-130.589 -109.816V-110.119H-130.893V-109.816H-130.589ZM-102.821 -109.816H-102.518V-110.119H-102.821V-109.816ZM-102.821 -81.9865V-81.6832H-102.518V-81.9865H-102.821ZM-130.589 -81.9865H-130.893V-81.6832H-130.589V-81.9865ZM-103.452 -109.816V-110.119H-103.756V-109.816H-103.452ZM-75.6844 -109.816H-75.3812V-110.119H-75.6844V-109.816ZM-75.6844 -81.9865V-81.6832H-75.3812V-81.9865H-75.6844ZM-103.452 -81.9865H-103.756V-81.6832H-103.452V-81.9865ZM-76.3156 -109.816V-110.119H-76.6188V-109.816H-76.3156ZM-48.5476 -109.816H-48.2443V-110.119H-48.5476V-109.816ZM-48.5476 -81.9865V-81.6832H-48.2443V-81.9865H-48.5476ZM-76.3156 -81.9865H-76.6188V-81.6832H-76.3156V-81.9865ZM-49.1786 -109.816V-110.119H-49.4819V-109.816H-49.1786ZM-21.4107 -109.816H-21.1074V-110.119H-21.4107V-109.816ZM-21.4107 -81.9865V-81.6832H-21.1074V-81.9865H-21.4107ZM-49.1786 -81.9865H-49.4819V-81.6832H-49.1786V-81.9865ZM-22.0418 -109.816V-110.119H-22.345V-109.816H-22.0418ZM5.72621 -109.816H6.02946V-110.119H5.72621V-109.816ZM5.72621 -81.9865V-81.6832H6.02946V-81.9865H5.72621ZM-22.0418 -81.9865H-22.345V-81.6832H-22.0418V-81.9865ZM5.09512 -109.816V-110.119H4.79189V-109.816H5.09512ZM32.8631 -109.816H33.1664V-110.119H32.8631V-109.816ZM32.8631 -81.9865V-81.6832H33.1664V-81.9865H32.8631ZM5.09512 -81.9865H4.79189V-81.6832H5.09512V-81.9865ZM32.232 -109.816V-110.119H31.9288V-109.816H32.232ZM60 -109.816H60.3032V-110.119H60V-109.816ZM60 -81.9865V-81.6832H60.3032V-81.9865H60ZM32.232 -81.9865H31.9288V-81.6832H32.232V-81.9865ZM-212 -82.619V-82.9222H-212.303V-82.619H-212ZM-184.232 -82.619H-183.929V-82.9222H-184.232V-82.619ZM-184.232 -54.7892V-54.4859H-183.929V-54.7892H-184.232ZM-212 -54.7892H-212.303V-54.4859H-212V-54.7892ZM-184.863 -82.619V-82.9222H-185.166V-82.619H-184.863ZM-157.095 -82.619H-156.792V-82.9222H-157.095V-82.619ZM-157.095 -54.7892V-54.4859H-156.792V-54.7892H-157.095ZM-184.863 -54.7892H-185.166V-54.4859H-184.863V-54.7892ZM-157.726 -82.619V-82.9222H-158.029V-82.619H-157.726ZM-129.958 -82.619H-129.655V-82.9222H-129.958V-82.619ZM-129.958 -54.7892V-54.4859H-129.655V-54.7892H-129.958ZM-157.726 -54.7892H-158.029V-54.4859H-157.726V-54.7892ZM-130.589 -82.619V-82.9222H-130.893V-82.619H-130.589ZM-102.821 -82.619H-102.518V-82.9222H-102.821V-82.619ZM-102.821 -54.7892V-54.4859H-102.518V-54.7892H-102.821ZM-130.589 -54.7892H-130.893V-54.4859H-130.589V-54.7892ZM-103.452 -82.619V-82.9222H-103.756V-82.619H-103.452ZM-75.6844 -82.619H-75.3812V-82.9222H-75.6844V-82.619ZM-75.6844 -54.7892V-54.4859H-75.3812V-54.7892H-75.6844ZM-103.452 -54.7892H-103.756V-54.4859H-103.452V-54.7892ZM-76.3156 -82.619V-82.9222H-76.6188V-82.619H-76.3156ZM-48.5476 -82.619H-48.2443V-82.9222H-48.5476V-82.619ZM-48.5476 -54.7892V-54.4859H-48.2443V-54.7892H-48.5476ZM-76.3156 -54.7892H-76.6188V-54.4859H-76.3156V-54.7892ZM-49.1786 -82.619V-82.9222H-49.4819V-82.619H-49.1786ZM-21.4107 -82.619H-21.1074V-82.9222H-21.4107V-82.619ZM-21.4107 -54.7892V-54.4859H-21.1074V-54.7892H-21.4107ZM-49.1786 -54.7892H-49.4819V-54.4859H-49.1786V-54.7892ZM-22.0418 -82.619V-82.9222H-22.345V-82.619H-22.0418ZM5.72621 -82.619H6.02946V-82.9222H5.72621V-82.619ZM5.72621 -54.7892V-54.4859H6.02946V-54.7892H5.72621ZM-22.0418 -54.7892H-22.345V-54.4859H-22.0418V-54.7892ZM5.09512 -82.619V-82.9222H4.79189V-82.619H5.09512ZM32.8631 -82.619H33.1664V-82.9222H32.8631V-82.619ZM32.8631 -54.7892V-54.4859H33.1664V-54.7892H32.8631ZM5.09512 -54.7892H4.79189V-54.4859H5.09512V-54.7892ZM32.232 -82.619V-82.9222H31.9288V-82.619H32.232ZM60 -82.619H60.3032V-82.9222H60V-82.619ZM60 -54.7892V-54.4859H60.3032V-54.7892H60ZM32.232 -54.7892H31.9288V-54.4859H32.232V-54.7892ZM-212 -55.4217V-55.7249H-212.303V-55.4217H-212ZM-184.232 -55.4217H-183.929V-55.7249H-184.232V-55.4217ZM-184.232 -27.5919V-27.2886H-183.929V-27.5919H-184.232ZM-212 -27.5919H-212.303V-27.2886H-212V-27.5919ZM-184.863 -55.4217V-55.7249H-185.166V-55.4217H-184.863ZM-157.095 -55.4217H-156.792V-55.7249H-157.095V-55.4217ZM-157.095 -27.5919V-27.2886H-156.792V-27.5919H-157.095ZM-184.863 -27.5919H-185.166V-27.2886H-184.863V-27.5919ZM-157.726 -55.4217V-55.7249H-158.029V-55.4217H-157.726ZM-129.958 -55.4217H-129.655V-55.7249H-129.958V-55.4217ZM-129.958 -27.5919V-27.2886H-129.655V-27.5919H-129.958ZM-157.726 -27.5919H-158.029V-27.2886H-157.726V-27.5919ZM-130.589 -55.4217V-55.7249H-130.893V-55.4217H-130.589ZM-102.821 -55.4217H-102.518V-55.7249H-102.821V-55.4217ZM-102.821 -27.5919V-27.2886H-102.518V-27.5919H-102.821ZM-130.589 -27.5919H-130.893V-27.2886H-130.589V-27.5919ZM-103.452 -55.4217V-55.7249H-103.756V-55.4217H-103.452ZM-75.6844 -55.4217H-75.3812V-55.7249H-75.6844V-55.4217ZM-75.6844 -27.5919V-27.2886H-75.3812V-27.5919H-75.6844ZM-103.452 -27.5919H-103.756V-27.2886H-103.452V-27.5919ZM-76.3156 -55.4217V-55.7249H-76.6188V-55.4217H-76.3156ZM-48.5476 -55.4217H-48.2443V-55.7249H-48.5476V-55.4217ZM-48.5476 -27.5919V-27.2886H-48.2443V-27.5919H-48.5476ZM-76.3156 -27.5919H-76.6188V-27.2886H-76.3156V-27.5919ZM-49.1786 -55.4217V-55.7249H-49.4819V-55.4217H-49.1786ZM-21.4107 -55.4217H-21.1074V-55.7249H-21.4107V-55.4217ZM-21.4107 -27.5919V-27.2886H-21.1074V-27.5919H-21.4107ZM-49.1786 -27.5919H-49.4819V-27.2886H-49.1786V-27.5919ZM-22.0418 -55.4217V-55.7249H-22.345V-55.4217H-22.0418ZM5.72621 -55.4217H6.02946V-55.7249H5.72621V-55.4217ZM5.72621 -27.5919V-27.2886H6.02946V-27.5919H5.72621ZM-22.0418 -27.5919H-22.345V-27.2886H-22.0418V-27.5919ZM5.09512 -55.4217V-55.7249H4.79189V-55.4217H5.09512ZM32.8631 -55.4217H33.1664V-55.7249H32.8631V-55.4217ZM32.8631 -27.5919V-27.2886H33.1664V-27.5919H32.8631ZM5.09512 -27.5919H4.79189V-27.2886H5.09512V-27.5919ZM32.232 -55.4217V-55.7249H31.9288V-55.4217H32.232ZM60 -55.4217H60.3032V-55.7249H60V-55.4217ZM60 -27.5919V-27.2886H60.3032V-27.5919H60ZM32.232 -27.5919H31.9288V-27.2886H32.232V-27.5919ZM-212 -28.2244V-28.5276H-212.303V-28.2244H-212ZM-184.232 -28.2244H-183.929V-28.5276H-184.232V-28.2244ZM-184.232 -0.394592V-0.0913391H-183.929V-0.394592H-184.232ZM-212 -0.394592H-212.303V-0.0913391H-212V-0.394592ZM-184.863 -28.2244V-28.5276H-185.166V-28.2244H-184.863ZM-157.095 -28.2244H-156.792V-28.5276H-157.095V-28.2244ZM-157.095 -0.394592V-0.0913391H-156.792V-0.394592H-157.095ZM-184.863 -0.394592H-185.166V-0.0913391H-184.863V-0.394592ZM-157.726 -28.2244V-28.5276H-158.029V-28.2244H-157.726ZM-129.958 -28.2244H-129.655V-28.5276H-129.958V-28.2244ZM-129.958 -0.394592V-0.0913391H-129.655V-0.394592H-129.958ZM-157.726 -0.394592H-158.029V-0.0913391H-157.726V-0.394592ZM-130.589 -28.2244V-28.5276H-130.893V-28.2244H-130.589ZM-102.821 -28.2244H-102.518V-28.5276H-102.821V-28.2244ZM-102.821 -0.394592V-0.0913391H-102.518V-0.394592H-102.821ZM-130.589 -0.394592H-130.893V-0.0913391H-130.589V-0.394592ZM-103.452 -28.2244V-28.5276H-103.756V-28.2244H-103.452ZM-75.6844 -28.2244H-75.3812V-28.5276H-75.6844V-28.2244ZM-75.6844 -0.394592V-0.0913391H-75.3812V-0.394592H-75.6844ZM-103.452 -0.394592H-103.756V-0.0913391H-103.452V-0.394592ZM-76.3156 -28.2244V-28.5276H-76.6188V-28.2244H-76.3156ZM-48.5476 -28.2244H-48.2443V-28.5276H-48.5476V-28.2244ZM-48.5476 -0.394592V-0.0913391H-48.2443V-0.394592H-48.5476ZM-76.3156 -0.394592H-76.6188V-0.0913391H-76.3156V-0.394592ZM-49.1786 -28.2244V-28.5276H-49.4819V-28.2244H-49.1786ZM-21.4107 -28.2244H-21.1074V-28.5276H-21.4107V-28.2244ZM-21.4107 -0.394592V-0.0913391H-21.1074V-0.394592H-21.4107ZM-49.1786 -0.394592H-49.4819V-0.0913391H-49.1786V-0.394592ZM-22.0418 -28.2244V-28.5276H-22.345V-28.2244H-22.0418ZM5.72621 -28.2244H6.02946V-28.5276H5.72621V-28.2244ZM5.72621 -0.394592V-0.0913391H6.02946V-0.394592H5.72621ZM-22.0418 -0.394592H-22.345V-0.0913391H-22.0418V-0.394592ZM5.09512 -28.2244V-28.5276H4.79189V-28.2244H5.09512ZM32.8631 -28.2244H33.1664V-28.5276H32.8631V-28.2244ZM32.8631 -0.394592V-0.0913391H33.1664V-0.394592H32.8631ZM5.09512 -0.394592H4.79189V-0.0913391H5.09512V-0.394592ZM32.232 -28.2244V-28.5276H31.9288V-28.2244H32.232ZM60 -28.2244H60.3032V-28.5276H60V-28.2244ZM60 -0.394592V-0.0913391H60.3032V-0.394592H60ZM32.232 -0.394592H31.9288V-0.0913391H32.232V-0.394592ZM-212 -1.0271V-1.33032H-212.303V-1.0271H-212ZM-184.232 -1.0271H-183.929V-1.33032H-184.232V-1.0271ZM-184.232 26.8027V27.106H-183.929V26.8027H-184.232ZM-212 26.8027H-212.303V27.106H-212V26.8027ZM-184.863 -1.0271V-1.33032H-185.166V-1.0271H-184.863ZM-157.095 -1.0271H-156.792V-1.33032H-157.095V-1.0271ZM-157.095 26.8027V27.106H-156.792V26.8027H-157.095ZM-184.863 26.8027H-185.166V27.106H-184.863V26.8027ZM-157.726 -1.0271V-1.33032H-158.029V-1.0271H-157.726ZM-129.958 -1.0271H-129.655V-1.33032H-129.958V-1.0271ZM-129.958 26.8027V27.106H-129.655V26.8027H-129.958ZM-157.726 26.8027H-158.029V27.106H-157.726V26.8027ZM-130.589 -1.0271V-1.33032H-130.893V-1.0271H-130.589ZM-102.821 -1.0271H-102.518V-1.33032H-102.821V-1.0271ZM-102.821 26.8027V27.106H-102.518V26.8027H-102.821ZM-130.589 26.8027H-130.893V27.106H-130.589V26.8027ZM-103.452 -1.0271V-1.33032H-103.756V-1.0271H-103.452ZM-75.6844 -1.0271H-75.3812V-1.33032H-75.6844V-1.0271ZM-75.6844 26.8027V27.106H-75.3812V26.8027H-75.6844ZM-103.452 26.8027H-103.756V27.106H-103.452V26.8027ZM-76.3156 -1.0271V-1.33032H-76.6188V-1.0271H-76.3156ZM-48.5476 -1.0271H-48.2443V-1.33032H-48.5476V-1.0271ZM-48.5476 26.8027V27.106H-48.2443V26.8027H-48.5476ZM-76.3156 26.8027H-76.6188V27.106H-76.3156V26.8027ZM-49.1786 -1.0271V-1.33032H-49.4819V-1.0271H-49.1786ZM-21.4107 -1.0271H-21.1074V-1.33032H-21.4107V-1.0271ZM-21.4107 26.8027V27.106H-21.1074V26.8027H-21.4107ZM-49.1786 26.8027H-49.4819V27.106H-49.1786V26.8027ZM-22.0418 -1.0271V-1.33032H-22.345V-1.0271H-22.0418ZM5.72621 -1.0271H6.02946V-1.33032H5.72621V-1.0271ZM5.72621 26.8027V27.106H6.02946V26.8027H5.72621ZM-22.0418 26.8027H-22.345V27.106H-22.0418V26.8027ZM5.09512 -1.0271V-1.33032H4.79189V-1.0271H5.09512ZM32.8631 -1.0271H33.1664V-1.33032H32.8631V-1.0271ZM32.8631 26.8027V27.106H33.1664V26.8027H32.8631ZM5.09512 26.8027H4.79189V27.106H5.09512V26.8027ZM32.232 -1.0271V-1.33032H31.9288V-1.0271H32.232ZM60 -1.0271H60.3032V-1.33032H60V-1.0271ZM60 26.8027V27.106H60.3032V26.8027H60ZM32.232 26.8027H31.9288V27.106H32.232V26.8027ZM-212 26.1702V25.867H-212.303V26.1702H-212ZM-184.232 26.1702H-183.929V25.867H-184.232V26.1702ZM-184.232 54V54.3033H-183.929V54H-184.232ZM-212 54H-212.303V54.3033H-212V54ZM-184.863 26.1702V25.867H-185.166V26.1702H-184.863ZM-157.095 26.1702H-156.792V25.867H-157.095V26.1702ZM-157.095 54V54.3033H-156.792V54H-157.095ZM-184.863 54H-185.166V54.3033H-184.863V54ZM-157.726 26.1702V25.867H-158.029V26.1702H-157.726ZM-129.958 26.1702H-129.655V25.867H-129.958V26.1702ZM-129.958 54V54.3033H-129.655V54H-129.958ZM-157.726 54H-158.029V54.3033H-157.726V54ZM-130.589 26.1702V25.867H-130.893V26.1702H-130.589ZM-102.821 26.1702H-102.518V25.867H-102.821V26.1702ZM-102.821 54V54.3033H-102.518V54H-102.821ZM-130.589 54H-130.893V54.3033H-130.589V54ZM-103.452 26.1702V25.867H-103.756V26.1702H-103.452ZM-75.6844 26.1702H-75.3812V25.867H-75.6844V26.1702ZM-75.6844 54V54.3033H-75.3812V54H-75.6844ZM-103.452 54H-103.756V54.3033H-103.452V54ZM-76.3156 26.1702V25.867H-76.6188V26.1702H-76.3156ZM-48.5476 26.1702H-48.2443V25.867H-48.5476V26.1702ZM-48.5476 54V54.3033H-48.2443V54H-48.5476ZM-76.3156 54H-76.6188V54.3033H-76.3156V54ZM-49.1786 26.1702V25.867H-49.4819V26.1702H-49.1786ZM-21.4107 26.1702H-21.1074V25.867H-21.4107V26.1702ZM-21.4107 54V54.3033H-21.1074V54H-21.4107ZM-49.1786 54H-49.4819V54.3033H-49.1786V54ZM-22.0418 26.1702V25.867H-22.345V26.1702H-22.0418ZM5.72621 26.1702H6.02946V25.867H5.72621V26.1702ZM5.72621 54V54.3033H6.02946V54H5.72621ZM-22.0418 54H-22.345V54.3033H-22.0418V54ZM5.09512 26.1702V25.867H4.79189V26.1702H5.09512ZM32.8631 26.1702H33.1664V25.867H32.8631V26.1702ZM32.8631 54V54.3033H33.1664V54H32.8631ZM5.09512 54H4.79189V54.3033H5.09512V54ZM32.232 26.1702V25.867H31.9288V26.1702H32.232ZM60 26.1702H60.3032V25.867H60V26.1702ZM60 54V54.3033H60.3032V54H60ZM32.232 54H31.9288V54.3033H32.232V54ZM-212 -272.697H-184.232V-273.303H-212V-272.697ZM-184.535 -273V-245.17H-183.929V-273H-184.535ZM-184.232 -245.473H-212V-244.867H-184.232V-245.473ZM-211.697 -245.17V-273H-212.303V-245.17H-211.697ZM-184.863 -272.697H-157.095V-273.303H-184.863V-272.697ZM-157.398 -273V-245.17H-156.792V-273H-157.398ZM-157.095 -245.473H-184.863V-244.867H-157.095V-245.473ZM-184.56 -245.17V-273H-185.166V-245.17H-184.56ZM-157.726 -272.697H-129.958V-273.303H-157.726V-272.697ZM-130.261 -273V-245.17H-129.655V-273H-130.261ZM-129.958 -245.473H-157.726V-244.867H-129.958V-245.473ZM-157.423 -245.17V-273H-158.029V-245.17H-157.423ZM-130.589 -272.697H-102.821V-273.303H-130.589V-272.697ZM-103.125 -273V-245.17H-102.518V-273H-103.125ZM-102.821 -245.473L-130.589 -245.473V-244.867L-102.821 -244.867V-245.473ZM-130.286 -245.17V-273H-130.893V-245.17H-130.286ZM-103.452 -272.697H-75.6844V-273.303H-103.452V-272.697ZM-75.9877 -273V-245.17H-75.3812V-273H-75.9877ZM-75.6844 -245.473H-103.452V-244.867H-75.6844V-245.473ZM-103.149 -245.17V-273H-103.756V-245.17H-103.149ZM-76.3156 -272.697H-48.5476V-273.303H-76.3156V-272.697ZM-48.8508 -273V-245.17H-48.2443V-273H-48.8508ZM-48.5476 -245.473H-76.3156V-244.867H-48.5476V-245.473ZM-76.0123 -245.17V-273H-76.6188V-245.17H-76.0123ZM-49.1786 -272.697L-21.4107 -272.697V-273.303L-49.1786 -273.303V-272.697ZM-21.7139 -273V-245.17H-21.1074V-273H-21.7139ZM-21.4107 -245.473H-49.1786V-244.867H-21.4107V-245.473ZM-48.8754 -245.17V-273H-49.4819V-245.17H-48.8754ZM-22.0418 -272.697H5.72621V-273.303H-22.0418V-272.697ZM5.42297 -273V-245.17H6.02946V-273H5.42297ZM5.72621 -245.473H-22.0418V-244.867H5.72621V-245.473ZM-21.7385 -245.17V-273H-22.345V-245.17H-21.7385ZM5.09512 -272.697H32.8631V-273.303H5.09512V-272.697ZM32.5599 -273V-245.17H33.1664V-273H32.5599ZM32.8631 -245.473H5.09512V-244.867H32.8631V-245.473ZM5.39836 -245.17V-273H4.79189V-245.17H5.39836ZM32.232 -272.697H60V-273.303H32.232V-272.697ZM59.6967 -273V-245.17H60.3032V-273H59.6967ZM60 -245.473L32.232 -245.473V-244.867L60 -244.867V-245.473ZM32.5353 -245.17V-273H31.9288V-245.17H32.5353ZM-212 -245.499H-184.232V-246.106H-212V-245.499ZM-184.535 -245.803V-217.973H-183.929V-245.803H-184.535ZM-184.232 -218.276H-212V-217.67H-184.232V-218.276ZM-211.697 -217.973V-245.803H-212.303V-217.973H-211.697ZM-184.863 -245.499H-157.095V-246.106H-184.863V-245.499ZM-157.398 -245.803V-217.973H-156.792V-245.803H-157.398ZM-157.095 -218.276H-184.863V-217.67H-157.095V-218.276ZM-184.56 -217.973V-245.803H-185.166V-217.973H-184.56ZM-157.726 -245.499H-129.958V-246.106H-157.726V-245.499ZM-130.261 -245.803V-217.973H-129.655V-245.803H-130.261ZM-129.958 -218.276H-157.726V-217.67H-129.958V-218.276ZM-157.423 -217.973V-245.803H-158.029V-217.973H-157.423ZM-130.589 -245.499L-102.821 -245.499V-246.106L-130.589 -246.106V-245.499ZM-103.125 -245.803L-103.125 -217.973H-102.518L-102.518 -245.803H-103.125ZM-102.821 -218.276H-130.589V-217.67H-102.821V-218.276ZM-130.286 -217.973V-245.803H-130.893V-217.973H-130.286ZM-103.452 -245.499H-75.6844V-246.106H-103.452V-245.499ZM-75.9877 -245.803V-217.973H-75.3812V-245.803H-75.9877ZM-75.6844 -218.276L-103.452 -218.276V-217.67L-75.6844 -217.67V-218.276ZM-103.149 -217.973L-103.149 -245.803H-103.756L-103.756 -217.973H-103.149ZM-76.3156 -245.499H-48.5476V-246.106H-76.3156V-245.499ZM-48.8508 -245.803V-217.973H-48.2443V-245.803H-48.8508ZM-48.5476 -218.276H-76.3156V-217.67H-48.5476V-218.276ZM-76.0123 -217.973V-245.803H-76.6188V-217.973H-76.0123ZM-49.1786 -245.499H-21.4107V-246.106H-49.1786V-245.499ZM-21.7139 -245.803V-217.973H-21.1074V-245.803H-21.7139ZM-21.4107 -218.276H-49.1786V-217.67H-21.4107V-218.276ZM-48.8754 -217.973V-245.803H-49.4819V-217.973H-48.8754ZM-22.0418 -245.499H5.72621V-246.106H-22.0418V-245.499ZM5.42297 -245.803V-217.973H6.02946V-245.803H5.42297ZM5.72621 -218.276H-22.0418V-217.67H5.72621V-218.276ZM-21.7385 -217.973V-245.803H-22.345V-217.973H-21.7385ZM5.09512 -245.499H32.8631V-246.106H5.09512V-245.499ZM32.5599 -245.803V-217.973H33.1664V-245.803H32.5599ZM32.8631 -218.276L5.09512 -218.276V-217.67L32.8631 -217.67V-218.276ZM5.39836 -217.973V-245.803H4.79189V-217.973H5.39836ZM32.232 -245.499L60 -245.499V-246.106L32.232 -246.106V-245.499ZM59.6967 -245.803V-217.973H60.3032V-245.803H59.6967ZM60 -218.276H32.232V-217.67H60V-218.276ZM32.5353 -217.973V-245.803H31.9288V-217.973H32.5353ZM-212 -218.302H-184.232V-218.909H-212V-218.302ZM-184.535 -218.605V-190.776H-183.929V-218.605H-184.535ZM-184.232 -191.079H-212V-190.472H-184.232V-191.079ZM-211.697 -190.776V-218.605H-212.303V-190.776H-211.697ZM-184.863 -218.302H-157.095V-218.909H-184.863V-218.302ZM-157.398 -218.605V-190.776H-156.792V-218.605H-157.398ZM-157.095 -191.079H-184.863V-190.472H-157.095V-191.079ZM-184.56 -190.776V-218.605H-185.166V-190.776H-184.56ZM-157.726 -218.302H-129.958V-218.909H-157.726V-218.302ZM-130.261 -218.605V-190.776H-129.655V-218.605H-130.261ZM-129.958 -191.079H-157.726V-190.472H-129.958V-191.079ZM-157.423 -190.776V-218.605H-158.029V-190.776H-157.423ZM-130.589 -218.302H-102.821V-218.909H-130.589V-218.302ZM-103.125 -218.605V-190.776H-102.518V-218.605H-103.125ZM-102.821 -191.079H-130.589V-190.472H-102.821V-191.079ZM-130.286 -190.776V-218.605H-130.893V-190.776H-130.286ZM-103.452 -218.302L-75.6844 -218.302V-218.909L-103.452 -218.909V-218.302ZM-75.9877 -218.605V-190.776H-75.3812V-218.605H-75.9877ZM-75.6844 -191.079L-103.452 -191.079V-190.472L-75.6844 -190.472V-191.079ZM-103.149 -190.776V-218.605H-103.756V-190.776H-103.149ZM-76.3156 -218.302H-48.5476V-218.909H-76.3156V-218.302ZM-48.8508 -218.605V-190.776H-48.2443V-218.605H-48.8508ZM-48.5476 -191.079H-76.3156V-190.472H-48.5476V-191.079ZM-76.0123 -190.776V-218.605H-76.6188V-190.776H-76.0123ZM-49.1786 -218.302H-21.4107V-218.909H-49.1786V-218.302ZM-21.7139 -218.605V-190.776H-21.1074V-218.605H-21.7139ZM-21.4107 -191.079H-49.1786V-190.472H-21.4107V-191.079ZM-48.8754 -190.776V-218.605H-49.4819V-190.776H-48.8754ZM-22.0418 -218.302H5.72621V-218.909H-22.0418V-218.302ZM5.42297 -218.605V-190.776H6.02946V-218.605H5.42297ZM5.72621 -191.079H-22.0418V-190.472H5.72621V-191.079ZM-21.7385 -190.776V-218.605H-22.345V-190.776H-21.7385ZM5.09512 -218.302L32.8631 -218.302V-218.909L5.09512 -218.909V-218.302ZM32.5599 -218.605V-190.776H33.1664V-218.605H32.5599ZM32.8631 -191.079L5.09512 -191.079V-190.472L32.8631 -190.472V-191.079ZM5.39836 -190.776V-218.605H4.79189V-190.776H5.39836ZM32.232 -218.302H60V-218.909H32.232V-218.302ZM59.6967 -218.605V-190.776H60.3032V-218.605H59.6967ZM60 -191.079H32.232V-190.472H60V-191.079ZM32.5353 -190.776V-218.605H31.9288V-190.776H32.5353ZM-212 -191.105H-184.232V-191.711H-212V-191.105ZM-184.535 -191.408L-184.535 -163.578H-183.929L-183.929 -191.408H-184.535ZM-184.232 -163.882H-212V-163.275H-184.232V-163.882ZM-211.697 -163.578L-211.697 -191.408H-212.303L-212.303 -163.578H-211.697ZM-184.863 -191.105H-157.095V-191.711H-184.863V-191.105ZM-157.398 -191.408V-163.578H-156.792V-191.408H-157.398ZM-157.095 -163.882H-184.863V-163.275H-157.095V-163.882ZM-184.56 -163.578L-184.56 -191.408H-185.166L-185.166 -163.578H-184.56ZM-157.726 -191.105H-129.958V-191.711H-157.726V-191.105ZM-130.261 -191.408V-163.578H-129.655V-191.408H-130.261ZM-129.958 -163.882H-157.726V-163.275H-129.958V-163.882ZM-157.423 -163.578V-191.408H-158.029V-163.578H-157.423ZM-130.589 -191.105H-102.821V-191.711H-130.589V-191.105ZM-103.125 -191.408V-163.578H-102.518V-191.408H-103.125ZM-102.821 -163.882H-130.589V-163.275H-102.821V-163.882ZM-130.286 -163.578V-191.408H-130.893V-163.578H-130.286ZM-103.452 -191.105L-75.6844 -191.105V-191.711L-103.452 -191.711V-191.105ZM-75.9877 -191.408L-75.9877 -163.578H-75.3812L-75.3812 -191.408H-75.9877ZM-75.6844 -163.882L-103.452 -163.882V-163.275L-75.6844 -163.275V-163.882ZM-103.149 -163.578V-191.408H-103.756V-163.578H-103.149ZM-76.3156 -191.105H-48.5476V-191.711H-76.3156V-191.105ZM-48.8508 -191.408L-48.8508 -163.578H-48.2443L-48.2443 -191.408H-48.8508ZM-48.5476 -163.882H-76.3156V-163.275H-48.5476V-163.882ZM-76.0123 -163.578L-76.0123 -191.408H-76.6188L-76.6188 -163.578H-76.0123ZM-49.1786 -191.105H-21.4107V-191.711H-49.1786V-191.105ZM-21.7139 -191.408L-21.7139 -163.578H-21.1074L-21.1074 -191.408H-21.7139ZM-21.4107 -163.882H-49.1786V-163.275H-21.4107V-163.882ZM-48.8754 -163.578L-48.8754 -191.408H-49.4819L-49.4819 -163.578H-48.8754ZM-22.0418 -191.105H5.72621V-191.711H-22.0418V-191.105ZM5.42297 -191.408L5.42297 -163.578H6.02946L6.02946 -191.408H5.42297ZM5.72621 -163.882H-22.0418V-163.275H5.72621V-163.882ZM-21.7385 -163.578L-21.7385 -191.408H-22.345L-22.345 -163.578H-21.7385ZM5.09512 -191.105L32.8631 -191.105V-191.711L5.09512 -191.711V-191.105ZM32.5599 -191.408L32.5599 -163.578H33.1664L33.1664 -191.408H32.5599ZM32.8631 -163.882L5.09512 -163.882V-163.275L32.8631 -163.275V-163.882ZM5.39836 -163.578L5.39836 -191.408H4.79189L4.79189 -163.578H5.39836ZM32.232 -191.105H60V-191.711H32.232V-191.105ZM59.6967 -191.408V-163.578H60.3032V-191.408H59.6967ZM60 -163.882H32.232V-163.275H60V-163.882ZM32.5353 -163.578L32.5353 -191.408H31.9288L31.9288 -163.578H32.5353ZM-212 -163.908H-184.232V-164.514H-212V-163.908ZM-184.535 -164.211V-136.381H-183.929V-164.211H-184.535ZM-184.232 -136.684H-212V-136.078H-184.232V-136.684ZM-211.697 -136.381V-164.211H-212.303V-136.381H-211.697ZM-184.863 -163.908H-157.095V-164.514H-184.863V-163.908ZM-157.398 -164.211L-157.398 -136.381H-156.792L-156.792 -164.211H-157.398ZM-157.095 -136.684H-184.863V-136.078H-157.095V-136.684ZM-184.56 -136.381V-164.211H-185.166V-136.381H-184.56ZM-157.726 -163.908H-129.958V-164.514H-157.726V-163.908ZM-130.261 -164.211L-130.261 -136.381H-129.655L-129.655 -164.211H-130.261ZM-129.958 -136.684H-157.726V-136.078H-129.958V-136.684ZM-157.423 -136.381L-157.423 -164.211H-158.029L-158.029 -136.381H-157.423ZM-130.589 -163.908H-102.821V-164.514H-130.589V-163.908ZM-103.125 -164.211L-103.125 -136.381H-102.518L-102.518 -164.211H-103.125ZM-102.821 -136.684L-130.589 -136.684V-136.078L-102.821 -136.078V-136.684ZM-130.286 -136.381L-130.286 -164.211H-130.893L-130.893 -136.381H-130.286ZM-103.452 -163.908L-75.6844 -163.908V-164.514L-103.452 -164.514V-163.908ZM-75.9877 -164.211V-136.381H-75.3812V-164.211H-75.9877ZM-75.6844 -136.684H-103.452V-136.078H-75.6844V-136.684ZM-103.149 -136.381L-103.149 -164.211H-103.756L-103.756 -136.381H-103.149ZM-76.3156 -163.908H-48.5476V-164.514H-76.3156V-163.908ZM-48.8508 -164.211V-136.381H-48.2443V-164.211H-48.8508ZM-48.5476 -136.684H-76.3156V-136.078H-48.5476V-136.684ZM-76.0123 -136.381V-164.211H-76.6188V-136.381H-76.0123ZM-49.1786 -163.908H-21.4107V-164.514H-49.1786V-163.908ZM-21.7139 -164.211V-136.381H-21.1074V-164.211H-21.7139ZM-21.4107 -136.684H-49.1786V-136.078H-21.4107V-136.684ZM-48.8754 -136.381V-164.211H-49.4819V-136.381H-48.8754ZM-22.0418 -163.908H5.72621V-164.514H-22.0418V-163.908ZM5.42297 -164.211V-136.381H6.02946V-164.211H5.42297ZM5.72621 -136.684H-22.0418V-136.078H5.72621V-136.684ZM-21.7385 -136.381V-164.211H-22.345V-136.381H-21.7385ZM5.09512 -163.908L32.8631 -163.908V-164.514L5.09512 -164.514V-163.908ZM32.5599 -164.211V-136.381H33.1664V-164.211H32.5599ZM32.8631 -136.684H5.09512V-136.078H32.8631V-136.684ZM5.39836 -136.381V-164.211H4.79189V-136.381H5.39836ZM32.232 -163.908H60V-164.514H32.232V-163.908ZM59.6967 -164.211V-136.381H60.3032V-164.211H59.6967ZM60 -136.684L32.232 -136.684V-136.078L60 -136.078V-136.684ZM32.5353 -136.381V-164.211H31.9288V-136.381H32.5353ZM-212 -136.71H-184.232V-137.317H-212V-136.71ZM-184.535 -137.014V-109.184H-183.929V-137.014H-184.535ZM-184.232 -109.487H-212V-108.881H-184.232V-109.487ZM-211.697 -109.184V-137.014H-212.303V-109.184H-211.697ZM-184.863 -136.71H-157.095V-137.317H-184.863V-136.71ZM-157.398 -137.014V-109.184H-156.792V-137.014H-157.398ZM-157.095 -109.487H-184.863V-108.881H-157.095V-109.487ZM-184.56 -109.184V-137.014H-185.166V-109.184H-184.56ZM-157.726 -136.71H-129.958V-137.317H-157.726V-136.71ZM-130.261 -137.014V-109.184H-129.655V-137.014H-130.261ZM-129.958 -109.487H-157.726V-108.881H-129.958V-109.487ZM-157.423 -109.184V-137.014H-158.029V-109.184H-157.423ZM-130.589 -136.71L-102.821 -136.71V-137.317L-130.589 -137.317V-136.71ZM-103.125 -137.014V-109.184H-102.518V-137.014H-103.125ZM-102.821 -109.487L-130.589 -109.487V-108.881L-102.821 -108.881V-109.487ZM-130.286 -109.184V-137.014H-130.893V-109.184H-130.286ZM-103.452 -136.71H-75.6844V-137.317H-103.452V-136.71ZM-75.9877 -137.014V-109.184H-75.3812V-137.014H-75.9877ZM-75.6844 -109.487H-103.452V-108.881H-75.6844V-109.487ZM-103.149 -109.184V-137.014H-103.756V-109.184H-103.149ZM-76.3156 -136.71H-48.5476V-137.317H-76.3156V-136.71ZM-48.8508 -137.014V-109.184H-48.2443V-137.014H-48.8508ZM-48.5476 -109.487H-76.3156V-108.881H-48.5476V-109.487ZM-76.0123 -109.184V-137.014H-76.6188V-109.184H-76.0123ZM-49.1786 -136.71H-21.4107V-137.317H-49.1786V-136.71ZM-21.7139 -137.014V-109.184H-21.1074V-137.014H-21.7139ZM-21.4107 -109.487H-49.1786V-108.881H-21.4107V-109.487ZM-48.8754 -109.184V-137.014H-49.4819V-109.184H-48.8754ZM-22.0418 -136.71H5.72621V-137.317H-22.0418V-136.71ZM5.42297 -137.014V-109.184H6.02946V-137.014H5.42297ZM5.72621 -109.487H-22.0418V-108.881H5.72621V-109.487ZM-21.7385 -109.184V-137.014H-22.345V-109.184H-21.7385ZM5.09512 -136.71H32.8631V-137.317H5.09512V-136.71ZM32.5599 -137.014V-109.184H33.1664V-137.014H32.5599ZM32.8631 -109.487H5.09512V-108.881H32.8631V-109.487ZM5.39836 -109.184V-137.014H4.79189V-109.184H5.39836ZM32.232 -136.71L60 -136.71V-137.317L32.232 -137.317V-136.71ZM59.6967 -137.014V-109.184H60.3032V-137.014H59.6967ZM60 -109.487L32.232 -109.487V-108.881L60 -108.881V-109.487ZM32.5353 -109.184V-137.014H31.9288V-109.184H32.5353ZM-212 -109.513H-184.232V-110.119H-212V-109.513ZM-184.535 -109.816V-81.9865H-183.929V-109.816H-184.535ZM-184.232 -82.2897H-212V-81.6832H-184.232V-82.2897ZM-211.697 -81.9865V-109.816H-212.303V-81.9865H-211.697ZM-184.863 -109.513H-157.095V-110.119H-184.863V-109.513ZM-157.398 -109.816V-81.9865H-156.792V-109.816H-157.398ZM-157.095 -82.2897H-184.863V-81.6832H-157.095V-82.2897ZM-184.56 -81.9865V-109.816H-185.166V-81.9865H-184.56ZM-157.726 -109.513H-129.958V-110.119H-157.726V-109.513ZM-130.261 -109.816V-81.9865H-129.655V-109.816H-130.261ZM-129.958 -82.2897H-157.726V-81.6832H-129.958V-82.2897ZM-157.423 -81.9865V-109.816H-158.029V-81.9865H-157.423ZM-130.589 -109.513L-102.821 -109.513V-110.119L-130.589 -110.119V-109.513ZM-103.125 -109.816V-81.9865H-102.518V-109.816H-103.125ZM-102.821 -82.2897L-130.589 -82.2897V-81.6832L-102.821 -81.6832V-82.2897ZM-130.286 -81.9865V-109.816H-130.893V-81.9865H-130.286ZM-103.452 -109.513H-75.6844V-110.119H-103.452V-109.513ZM-75.9877 -109.816V-81.9865H-75.3812V-109.816H-75.9877ZM-75.6844 -82.2897H-103.452V-81.6832H-75.6844V-82.2897ZM-103.149 -81.9865V-109.816H-103.756V-81.9865H-103.149ZM-76.3156 -109.513H-48.5476V-110.119H-76.3156V-109.513ZM-48.8508 -109.816V-81.9865H-48.2443V-109.816H-48.8508ZM-48.5476 -82.2897H-76.3156V-81.6832H-48.5476V-82.2897ZM-76.0123 -81.9865V-109.816H-76.6188V-81.9865H-76.0123ZM-49.1786 -109.513H-21.4107V-110.119H-49.1786V-109.513ZM-21.7139 -109.816V-81.9865H-21.1074V-109.816H-21.7139ZM-21.4107 -82.2897H-49.1786V-81.6832H-21.4107V-82.2897ZM-48.8754 -81.9865V-109.816H-49.4819V-81.9865H-48.8754ZM-22.0418 -109.513H5.72621V-110.119H-22.0418V-109.513ZM5.42297 -109.816V-81.9865H6.02946V-109.816H5.42297ZM5.72621 -82.2897H-22.0418V-81.6832H5.72621V-82.2897ZM-21.7385 -81.9865V-109.816H-22.345V-81.9865H-21.7385ZM5.09512 -109.513H32.8631V-110.119H5.09512V-109.513ZM32.5599 -109.816V-81.9865H33.1664V-109.816H32.5599ZM32.8631 -82.2897H5.09512V-81.6832H32.8631V-82.2897ZM5.39836 -81.9865V-109.816H4.79189V-81.9865H5.39836ZM32.232 -109.513L60 -109.513V-110.119L32.232 -110.119V-109.513ZM59.6967 -109.816L59.6967 -81.9865H60.3032L60.3032 -109.816H59.6967ZM60 -82.2897L32.232 -82.2897V-81.6832L60 -81.6832V-82.2897ZM32.5353 -81.9865V-109.816H31.9288V-81.9865H32.5353ZM-212 -82.3157H-184.232V-82.9222H-212V-82.3157ZM-184.535 -82.619V-54.7892H-183.929V-82.619H-184.535ZM-184.232 -55.0924H-212V-54.4859H-184.232V-55.0924ZM-211.697 -54.7892V-82.619H-212.303V-54.7892H-211.697ZM-184.863 -82.3157H-157.095V-82.9222H-184.863V-82.3157ZM-157.398 -82.619V-54.7892H-156.792V-82.619H-157.398ZM-157.095 -55.0924H-184.863V-54.4859H-157.095V-55.0924ZM-184.56 -54.7892V-82.619H-185.166V-54.7892H-184.56ZM-157.726 -82.3157H-129.958V-82.9222H-157.726V-82.3157ZM-130.261 -82.619V-54.7892H-129.655V-82.619H-130.261ZM-129.958 -55.0924H-157.726V-54.4859H-129.958V-55.0924ZM-157.423 -54.7892V-82.619H-158.029V-54.7892H-157.423ZM-130.589 -82.3157L-102.821 -82.3157V-82.9222L-130.589 -82.9222V-82.3157ZM-103.125 -82.619V-54.7892H-102.518V-82.619H-103.125ZM-102.821 -55.0924L-130.589 -55.0924V-54.4859L-102.821 -54.4859V-55.0924ZM-130.286 -54.7892V-82.619H-130.893V-54.7892H-130.286ZM-103.452 -82.3157H-75.6844V-82.9222H-103.452V-82.3157ZM-75.9877 -82.619V-54.7892H-75.3812V-82.619H-75.9877ZM-75.6844 -55.0924H-103.452V-54.4859H-75.6844V-55.0924ZM-103.149 -54.7892V-82.619H-103.756V-54.7892H-103.149ZM-76.3156 -82.3157H-48.5476V-82.9222H-76.3156V-82.3157ZM-48.8508 -82.619V-54.7892H-48.2443V-82.619H-48.8508ZM-48.5476 -55.0924H-76.3156V-54.4859H-48.5476V-55.0924ZM-76.0123 -54.7892V-82.619H-76.6188V-54.7892H-76.0123ZM-49.1786 -82.3157H-21.4107V-82.9222H-49.1786V-82.3157ZM-21.7139 -82.619V-54.7892H-21.1074V-82.619H-21.7139ZM-21.4107 -55.0924H-49.1786V-54.4859H-21.4107V-55.0924ZM-48.8754 -54.7892V-82.619H-49.4819V-54.7892H-48.8754ZM-22.0418 -82.3157H5.72621V-82.9222H-22.0418V-82.3157ZM5.42297 -82.619V-54.7892H6.02946V-82.619H5.42297ZM5.72621 -55.0924H-22.0418V-54.4859H5.72621V-55.0924ZM-21.7385 -54.7892V-82.619H-22.345V-54.7892H-21.7385ZM5.09512 -82.3157H32.8631V-82.9222H5.09512V-82.3157ZM32.5599 -82.619V-54.7892H33.1664V-82.619H32.5599ZM32.8631 -55.0924H5.09512V-54.4859H32.8631V-55.0924ZM5.39836 -54.7892V-82.619H4.79189V-54.7892H5.39836ZM32.232 -82.3157L60 -82.3157V-82.9222L32.232 -82.9222V-82.3157ZM59.6967 -82.619V-54.7892H60.3032V-82.619H59.6967ZM60 -55.0924L32.232 -55.0924V-54.4859L60 -54.4859V-55.0924ZM32.5353 -54.7892V-82.619H31.9288V-54.7892H32.5353ZM-212 -55.1184H-184.232V-55.7249H-212V-55.1184ZM-184.535 -55.4217V-27.5919H-183.929V-55.4217H-184.535ZM-184.232 -27.8951H-212V-27.2886H-184.232V-27.8951ZM-211.697 -27.5919V-55.4217H-212.303V-27.5919H-211.697ZM-184.863 -55.1184H-157.095V-55.7249H-184.863V-55.1184ZM-157.398 -55.4217L-157.398 -27.5919H-156.792L-156.792 -55.4217H-157.398ZM-157.095 -27.8951H-184.863V-27.2886H-157.095V-27.8951ZM-184.56 -27.5919V-55.4217H-185.166V-27.5919H-184.56ZM-157.726 -55.1184H-129.958V-55.7249H-157.726V-55.1184ZM-130.261 -55.4217L-130.261 -27.5919H-129.655L-129.655 -55.4217H-130.261ZM-129.958 -27.8951H-157.726V-27.2886H-129.958V-27.8951ZM-157.423 -27.5919L-157.423 -55.4217H-158.029L-158.029 -27.5919H-157.423ZM-130.589 -55.1184L-102.821 -55.1184V-55.7249L-130.589 -55.7249V-55.1184ZM-103.125 -55.4217L-103.125 -27.5919H-102.518L-102.518 -55.4217H-103.125ZM-102.821 -27.8951L-130.589 -27.8951V-27.2886L-102.821 -27.2886V-27.8951ZM-130.286 -27.5919L-130.286 -55.4217H-130.893L-130.893 -27.5919H-130.286ZM-103.452 -55.1184H-75.6844V-55.7249H-103.452V-55.1184ZM-75.9877 -55.4217V-27.5919H-75.3812V-55.4217H-75.9877ZM-75.6844 -27.8951H-103.452V-27.2886H-75.6844V-27.8951ZM-103.149 -27.5919L-103.149 -55.4217H-103.756L-103.756 -27.5919H-103.149ZM-76.3156 -55.1184H-48.5476V-55.7249H-76.3156V-55.1184ZM-48.8508 -55.4217V-27.5919H-48.2443V-55.4217H-48.8508ZM-48.5476 -27.8951H-76.3156V-27.2886H-48.5476V-27.8951ZM-76.0123 -27.5919V-55.4217H-76.6188V-27.5919H-76.0123ZM-49.1786 -55.1184H-21.4107V-55.7249H-49.1786V-55.1184ZM-21.7139 -55.4217V-27.5919H-21.1074V-55.4217H-21.7139ZM-21.4107 -27.8951H-49.1786V-27.2886H-21.4107V-27.8951ZM-48.8754 -27.5919V-55.4217H-49.4819V-27.5919H-48.8754ZM-22.0418 -55.1184H5.72621V-55.7249H-22.0418V-55.1184ZM5.42297 -55.4217V-27.5919H6.02946V-55.4217H5.42297ZM5.72621 -27.8951H-22.0418V-27.2886H5.72621V-27.8951ZM-21.7385 -27.5919V-55.4217H-22.345V-27.5919H-21.7385ZM5.09512 -55.1184H32.8631V-55.7249H5.09512V-55.1184ZM32.5599 -55.4217V-27.5919H33.1664V-55.4217H32.5599ZM32.8631 -27.8951H5.09512V-27.2886H32.8631V-27.8951ZM5.39836 -27.5919V-55.4217H4.79189V-27.5919H5.39836ZM32.232 -55.1184L60 -55.1184V-55.7249L32.232 -55.7249V-55.1184ZM59.6967 -55.4217V-27.5919H60.3032V-55.4217H59.6967ZM60 -27.8951L32.232 -27.8951V-27.2886L60 -27.2886V-27.8951ZM32.5353 -27.5919V-55.4217H31.9288V-27.5919H32.5353ZM-212 -27.9211H-184.232V-28.5276H-212V-27.9211ZM-184.535 -28.2244L-184.535 -0.394592H-183.929L-183.929 -28.2244H-184.535ZM-184.232 -0.697845H-212V-0.0913391H-184.232V-0.697845ZM-211.697 -0.394592L-211.697 -28.2244H-212.303L-212.303 -0.394592H-211.697ZM-184.863 -27.9211H-157.095V-28.5276H-184.863V-27.9211ZM-157.398 -28.2244V-0.394592H-156.792V-28.2244H-157.398ZM-157.095 -0.697845H-184.863V-0.0913391H-157.095V-0.697845ZM-184.56 -0.394592L-184.56 -28.2244H-185.166L-185.166 -0.394592H-184.56ZM-157.726 -27.9211H-129.958V-28.5276H-157.726V-27.9211ZM-130.261 -28.2244V-0.394592H-129.655V-28.2244H-130.261ZM-129.958 -0.697845H-157.726V-0.0913391H-129.958V-0.697845ZM-157.423 -0.394592V-28.2244H-158.029V-0.394592H-157.423ZM-130.589 -27.9211L-102.821 -27.9211V-28.5276L-130.589 -28.5276V-27.9211ZM-103.125 -28.2244V-0.394592H-102.518V-28.2244H-103.125ZM-102.821 -0.697845H-130.589V-0.0913391H-102.821V-0.697845ZM-130.286 -0.394592V-28.2244H-130.893V-0.394592H-130.286ZM-103.452 -27.9211H-75.6844V-28.5276H-103.452V-27.9211ZM-75.9877 -28.2244L-75.9877 -0.394592H-75.3812L-75.3812 -28.2244H-75.9877ZM-75.6844 -0.697845H-103.452V-0.0913391H-75.6844V-0.697845ZM-103.149 -0.394592V-28.2244H-103.756V-0.394592H-103.149ZM-76.3156 -27.9211H-48.5476V-28.5276H-76.3156V-27.9211ZM-48.8508 -28.2244L-48.8508 -0.394592H-48.2443L-48.2443 -28.2244H-48.8508ZM-48.5476 -0.697845H-76.3156V-0.0913391H-48.5476V-0.697845ZM-76.0123 -0.394592L-76.0123 -28.2244H-76.6188L-76.6188 -0.394592H-76.0123ZM-49.1786 -27.9211H-21.4107V-28.5276H-49.1786V-27.9211ZM-21.7139 -28.2244L-21.7139 -0.394592H-21.1074L-21.1074 -28.2244H-21.7139ZM-21.4107 -0.697845L-49.1786 -0.697845V-0.0913391L-21.4107 -0.0913391V-0.697845ZM-48.8754 -0.394592L-48.8754 -28.2244H-49.4819L-49.4819 -0.394592H-48.8754ZM-22.0418 -27.9211H5.72621V-28.5276H-22.0418V-27.9211ZM5.42297 -28.2244L5.42297 -0.394592H6.02946L6.02946 -28.2244H5.42297ZM5.72621 -0.697845H-22.0418V-0.0913391H5.72621V-0.697845ZM-21.7385 -0.394592L-21.7385 -28.2244H-22.345L-22.345 -0.394592H-21.7385ZM5.09512 -27.9211H32.8631V-28.5276H5.09512V-27.9211ZM32.5599 -28.2244L32.5599 -0.394592H33.1664L33.1664 -28.2244H32.5599ZM32.8631 -0.697845H5.09512V-0.0913391H32.8631V-0.697845ZM5.39836 -0.394592L5.39836 -28.2244H4.79189L4.79189 -0.394592H5.39836ZM32.232 -27.9211L60 -27.9211V-28.5276L32.232 -28.5276V-27.9211ZM59.6967 -28.2244V-0.394592H60.3032V-28.2244H59.6967ZM60 -0.697845H32.232V-0.0913391H60V-0.697845ZM32.5353 -0.394592L32.5353 -28.2244H31.9288L31.9288 -0.394592H32.5353ZM-212 -0.723846H-184.232V-1.33032H-212V-0.723846ZM-184.535 -1.0271V26.8027H-183.929V-1.0271H-184.535ZM-184.232 26.4995H-212V27.106H-184.232V26.4995ZM-211.697 26.8027V-1.0271H-212.303V26.8027H-211.697ZM-184.863 -0.723846H-157.095V-1.33032H-184.863V-0.723846ZM-157.398 -1.0271V26.8027H-156.792V-1.0271H-157.398ZM-157.095 26.4995H-184.863V27.106H-157.095V26.4995ZM-184.56 26.8027V-1.0271H-185.166V26.8027H-184.56ZM-157.726 -0.723846H-129.958V-1.33032H-157.726V-0.723846ZM-130.261 -1.0271V26.8027H-129.655V-1.0271H-130.261ZM-129.958 26.4995H-157.726V27.106H-129.958V26.4995ZM-157.423 26.8027V-1.0271H-158.029V26.8027H-157.423ZM-130.589 -0.723846H-102.821V-1.33032H-130.589V-0.723846ZM-103.125 -1.0271V26.8027H-102.518V-1.0271H-103.125ZM-102.821 26.4995H-130.589V27.106H-102.821V26.4995ZM-130.286 26.8027V-1.0271H-130.893V26.8027H-130.286ZM-103.452 -0.723846H-75.6844V-1.33032H-103.452V-0.723846ZM-75.9877 -1.0271V26.8027H-75.3812V-1.0271H-75.9877ZM-75.6844 26.4995H-103.452V27.106H-75.6844V26.4995ZM-103.149 26.8027V-1.0271H-103.756V26.8027H-103.149ZM-76.3156 -0.723846H-48.5476V-1.33032H-76.3156V-0.723846ZM-48.8508 -1.0271V26.8027H-48.2443V-1.0271H-48.8508ZM-48.5476 26.4995H-76.3156V27.106H-48.5476V26.4995ZM-76.0123 26.8027V-1.0271H-76.6188V26.8027H-76.0123ZM-49.1786 -0.723846L-21.4107 -0.723846V-1.33032L-49.1786 -1.33032V-0.723846ZM-21.7139 -1.0271V26.8027H-21.1074V-1.0271H-21.7139ZM-21.4107 26.4995L-49.1786 26.4995V27.106L-21.4107 27.106V26.4995ZM-48.8754 26.8027V-1.0271H-49.4819V26.8027H-48.8754ZM-22.0418 -0.723846H5.72621V-1.33032H-22.0418V-0.723846ZM5.42297 -1.0271V26.8027H6.02946V-1.0271H5.42297ZM5.72621 26.4995H-22.0418V27.106H5.72621V26.4995ZM-21.7385 26.8027V-1.0271H-22.345V26.8027H-21.7385ZM5.09512 -0.723846H32.8631V-1.33032H5.09512V-0.723846ZM32.5599 -1.0271V26.8027H33.1664V-1.0271H32.5599ZM32.8631 26.4995H5.09512V27.106H32.8631V26.4995ZM5.39836 26.8027V-1.0271H4.79189V26.8027H5.39836ZM32.232 -0.723846H60V-1.33032H32.232V-0.723846ZM59.6967 -1.0271V26.8027H60.3032V-1.0271H59.6967ZM60 26.4995H32.232V27.106H60V26.4995ZM32.5353 26.8027V-1.0271H31.9288V26.8027H32.5353ZM-212 26.4734H-184.232V25.867H-212V26.4734ZM-184.535 26.1702V54H-183.929V26.1702H-184.535ZM-184.232 53.6967H-212V54.3033H-184.232V53.6967ZM-211.697 54V26.1702H-212.303V54H-211.697ZM-184.863 26.4734H-157.095V25.867H-184.863V26.4734ZM-157.398 26.1702V54H-156.792V26.1702H-157.398ZM-157.095 53.6967H-184.863V54.3033H-157.095V53.6967ZM-184.56 54V26.1702H-185.166V54H-184.56ZM-157.726 26.4734H-129.958V25.867H-157.726V26.4734ZM-130.261 26.1702V54H-129.655V26.1702H-130.261ZM-129.958 53.6967H-157.726V54.3033H-129.958V53.6967ZM-157.423 54V26.1702H-158.029V54H-157.423ZM-130.589 26.4734H-102.821V25.867H-130.589V26.4734ZM-103.125 26.1702L-103.125 54H-102.518L-102.518 26.1702H-103.125ZM-102.821 53.6967H-130.589V54.3033H-102.821V53.6967ZM-130.286 54V26.1702H-130.893V54H-130.286ZM-103.452 26.4734H-75.6844V25.867H-103.452V26.4734ZM-75.9877 26.1702V54H-75.3812V26.1702H-75.9877ZM-75.6844 53.6967H-103.452V54.3033H-75.6844V53.6967ZM-103.149 54L-103.149 26.1702H-103.756L-103.756 54H-103.149ZM-76.3156 26.4734H-48.5476V25.867H-76.3156V26.4734ZM-48.8508 26.1702V54H-48.2443V26.1702H-48.8508ZM-48.5476 53.6967H-76.3156V54.3033H-48.5476V53.6967ZM-76.0123 54V26.1702H-76.6188V54H-76.0123ZM-49.1786 26.4734L-21.4107 26.4734V25.867L-49.1786 25.867V26.4734ZM-21.7139 26.1702V54H-21.1074V26.1702H-21.7139ZM-21.4107 53.6967L-49.1786 53.6967V54.3033L-21.4107 54.3033V53.6967ZM-48.8754 54V26.1702H-49.4819V54H-48.8754ZM-22.0418 26.4734H5.72621V25.867H-22.0418V26.4734ZM5.42297 26.1702V54H6.02946V26.1702H5.42297ZM5.72621 53.6967H-22.0418V54.3033H5.72621V53.6967ZM-21.7385 54V26.1702H-22.345V54H-21.7385ZM5.09512 26.4734H32.8631V25.867H5.09512V26.4734ZM32.5599 26.1702V54H33.1664V26.1702H32.5599ZM32.8631 53.6967H5.09512V54.3033H32.8631V53.6967ZM5.39836 54V26.1702H4.79189V54H5.39836ZM32.232 26.4734H60V25.867H32.232V26.4734ZM59.6967 26.1702V54H60.3032V26.1702H59.6967ZM60 53.6967H32.232V54.3033H60V53.6967ZM32.5353 54V26.1702H31.9288V54H32.5353Z" fill="url(#paint0_linear_0_1)" mask="url(#path-5-inside-1_0_1)"/>
</g>
<g id="Frame 45">
<g id="Frame 1000002940">
<g id="Frame 1846">
<g id="Frame 1846_2">
<rect x="-196" y="-118" width="416" height="214" rx="16" fill="white"/>
<g id="Frame 1811">
<g id="div.relative">
<g id="vuesax/linear/arrow-right">
<g id="vuesax/linear/arrow-right_2">
<g id="arrow-right">
<path id="Vector_2" d="M14.4299 5.93005L20.4999 12.0001L14.4299 18.0701" stroke="#808080" stroke-opacity="0.8" stroke-width="1.5" stroke-miterlimit="10" stroke-linecap="round" stroke-linejoin="round"/>
<path id="Vector_3" d="M3.5 12H20.33" stroke="#808080" stroke-opacity="0.8" stroke-width="1.5" stroke-miterlimit="10" stroke-linecap="round" stroke-linejoin="round"/>
</g>
</g>
</g>
</g>
</g>
<rect x="-195" y="-117" width="414" height="212" rx="15" stroke="url(#paint1_linear_0_1)" stroke-opacity="0.3" stroke-width="2"/>
</g>
</g>
</g>
</g>
</g>
<rect x="-211" y="-272" width="446" height="838" rx="19" stroke="url(#paint2_linear_0_1)" stroke-width="2"/>
</g>
<path d="M-331 -428H858V-430H-331V-428ZM859 -427V1670H861V-427H859ZM858 1671H-331V1673H858V1671ZM-332 1670V-427H-334V1670H-332ZM-331 1671C-331.552 1671 -332 1670.55 -332 1670H-334C-334 1671.66 -332.657 1673 -331 1673V1671ZM859 1670C859 1670.55 858.552 1671 858 1671V1673C859.657 1673 861 1671.66 861 1670H859ZM858 -428C858.552 -428 859 -427.552 859 -427H861C861 -428.657 859.657 -430 858 -430V-428ZM-331 -430C-332.657 -430 -334 -428.657 -334 -427H-332C-332 -427.552 -331.552 -428 -331 -428V-430Z" fill="white" fill-opacity="0.1"/>
</g>
<defs>
<filter id="filter0_ddd_0_1" x="-242" y="-301" width="508" height="900" filterUnits="userSpaceOnUse" color-interpolation-filters="sRGB">
<feFlood flood-opacity="0" result="BackgroundImageFix"/>
<feColorMatrix in="SourceAlpha" type="matrix" values="0 0 0 0 0 0 0 0 0 0 0 0 0 0 0 0 0 0 127 0" result="hardAlpha"/>
<feOffset/>
<feGaussianBlur stdDeviation="0.5"/>
<feComposite in2="hardAlpha" operator="out"/>
<feColorMatrix type="matrix" values="0 0 0 0 0.501961 0 0 0 0 0.501961 0 0 0 0 0.501961 0 0 0 0.2 0"/>
<feBlend mode="normal" in2="BackgroundImageFix" result="effect1_dropShadow_0_1"/>
<feColorMatrix in="SourceAlpha" type="matrix" values="0 0 0 0 0 0 0 0 0 0 0 0 0 0 0 0 0 0 127 0" result="hardAlpha"/>
<feOffset dy="2"/>
<feGaussianBlur stdDeviation="15"/>
<feComposite in2="hardAlpha" operator="out"/>
<feColorMatrix type="matrix" values="0 0 0 0 0.501961 0 0 0 0 0.501961 0 0 0 0 0.501961 0 0 0 0.08 0"/>
<feBlend mode="normal" in2="effect1_dropShadow_0_1" result="effect2_dropShadow_0_1"/>
<feColorMatrix in="SourceAlpha" type="matrix" values="0 0 0 0 0 0 0 0 0 0 0 0 0 0 0 0 0 0 127 0" result="hardAlpha"/>
<feOffset/>
<feGaussianBlur stdDeviation="7.5"/>
<feComposite in2="hardAlpha" operator="out"/>
<feColorMatrix type="matrix" values="0 0 0 0 0.501961 0 0 0 0 0.501961 0 0 0 0 0.501961 0 0 0 0.03 0"/>
<feBlend mode="normal" in2="effect2_dropShadow_0_1" result="effect3_dropShadow_0_1"/>
<feBlend mode="normal" in="SourceGraphic" in2="effect3_dropShadow_0_1" result="shape"/>
</filter>
<linearGradient id="paint0_linear_0_1" x1="-199.64" y1="-252.563" x2="114.139" y2="-28.6944" gradientUnits="userSpaceOnUse">
<stop stop-color="#808080" stop-opacity="0.08"/>
<stop offset="0.234954" stop-color="#808080" stop-opacity="0.02"/>
<stop offset="0.500579" stop-color="#808080" stop-opacity="0"/>
</linearGradient>
<linearGradient id="paint1_linear_0_1" x1="-196" y1="-118" x2="170.927" y2="160.625" gradientUnits="userSpaceOnUse">
<stop stop-color="#9F8BFF"/>
<stop offset="1" stop-color="#7053FF"/>
</linearGradient>
<linearGradient id="paint2_linear_0_1" x1="-212" y1="-273" x2="446.451" y2="-47.4957" gradientUnits="userSpaceOnUse">
<stop stop-color="#808080" stop-opacity="0.05"/>
<stop offset="0.523776" stop-color="#808080" stop-opacity="0"/>
<stop offset="1" stop-color="#808080" stop-opacity="0.15"/>
</linearGradient>
<clipPath id="clip0_0_1">
<rect x="-212" y="-273" width="448" height="840" rx="20" fill="white"/>
</clipPath>
</defs>
</svg>
