<svg width="18" height="18" viewBox="0 0 18 18" fill="none" xmlns="http://www.w3.org/2000/svg">
<g id="vuesax/linear/copy">
<g id="vuesax/linear/copy_2">
<g id="copy">
<path id="Vector" d="M12.0005 9.675V12.825C12.0005 15.45 10.9505 16.5 8.32549 16.5H5.17549C2.55049 16.5 1.50049 15.45 1.50049 12.825V9.675C1.50049 7.05 2.55049 6 5.17549 6H8.32549C10.9505 6 12.0005 7.05 12.0005 9.675Z" stroke="#505050" stroke-width="1.5" stroke-linecap="round" stroke-linejoin="round"/>
<path id="Vector_2" d="M16.5005 5.175V8.325C16.5005 10.95 15.4505 12 12.8255 12H12.0005V9.675C12.0005 7.05 10.9505 6 8.32549 6H6.00049V5.175C6.00049 2.55 7.05049 1.5 9.67549 1.5H12.8255C15.4505 1.5 16.5005 2.55 16.5005 5.175Z" stroke="#505050" stroke-width="1.5" stroke-linecap="round" stroke-linejoin="round"/>
</g>
</g>
</g>
</svg>
