<svg width="18" height="18" viewBox="0 0 18 18" fill="none" xmlns="http://www.w3.org/2000/svg">
<g id="vuesax/linear/gas-station">
<g id="gas-station">
<path id="Vector" d="M2.625 16.5V3.75C2.625 2.25 3.63 1.5 4.875 1.5H10.875C12.12 1.5 13.125 2.25 13.125 3.75V16.5H2.625Z" stroke="#606060" stroke-width="1.5" stroke-linecap="round" stroke-linejoin="round"/>
<path id="Vector_2" d="M1.5 16.5H14.25" stroke="#606060" stroke-width="1.125" stroke-linecap="round" stroke-linejoin="round"/>
<path id="Vector_3" d="M6.2925 7.49999H9.465C10.245 7.49999 10.8825 7.12499 10.8825 6.08249V5.15999C10.8825 4.11749 10.245 3.74249 9.465 3.74249H6.2925C5.5125 3.74249 4.875 4.11749 4.875 5.15999V6.08249C4.875 7.12499 5.5125 7.49999 6.2925 7.49999Z" stroke="#606060" stroke-width="1.5" stroke-linecap="round" stroke-linejoin="round"/>
<path id="Vector_4" d="M4.875 9.75H7.125" stroke="#606060" stroke-width="1.5" stroke-linecap="round" stroke-linejoin="round"/>
<path id="Vector_5" d="M13.125 12.0075L16.5 12V7.5L15 6.75" stroke="#606060" stroke-width="1.5" stroke-linecap="round" stroke-linejoin="round"/>
</g>
</g>
</svg>
