<svg width="25" height="24" viewBox="0 0 25 24" fill="none" xmlns="http://www.w3.org/2000/svg">
<g id="vuesax/bold/home">
<g id="home">
<path id="Vector" d="M21.33 8.01014L14.78 2.77014C13.5 1.75014 11.5 1.74014 10.23 2.76014L3.67996 8.01014C2.73996 8.76014 2.16996 10.2601 2.36996 11.4401L3.62996 18.9801C3.91996 20.6701 5.48995 22.0001 7.19995 22.0001H17.8C19.49 22.0001 21.09 20.6401 21.38 18.9701L22.64 11.4301C22.82 10.2601 22.25 8.76014 21.33 8.01014ZM13.25 18.0001C13.25 18.4101 12.91 18.7501 12.5 18.7501C12.09 18.7501 11.75 18.4101 11.75 18.0001V15.0001C11.75 14.5901 12.09 14.2501 12.5 14.2501C12.91 14.2501 13.25 14.5901 13.25 15.0001V18.0001Z" fill="white"/>
</g>
</g>
</svg>
