<svg width="31" height="31" viewBox="0 0 31 31" fill="none" xmlns="http://www.w3.org/2000/svg">
<path d="M20.859 11.5329C20.4438 11.2882 19.9042 11.2882 19.4476 11.5329L16.2095 13.4086L14.0094 14.632L10.7714 16.5077C10.3563 16.7523 9.81659 16.7523 9.35995 16.5077L6.78615 15.0397C6.37102 14.795 6.08043 14.3465 6.08043 13.8572V10.962C6.08043 10.4727 6.32951 10.0241 6.78615 9.77945L9.31843 8.35225C9.73356 8.10759 10.2732 8.10759 10.7299 8.35225L13.2622 9.77945C13.6773 10.0241 13.9679 10.4727 13.9679 10.962V12.8378L16.1681 11.5737V9.69791C16.1681 9.20857 15.919 8.76002 15.4624 8.51536L10.7714 5.82406C10.3563 5.5794 9.81659 5.5794 9.35995 5.82406L4.58597 8.51536C4.12933 8.76002 3.88025 9.20857 3.88025 9.69791V15.1213C3.88025 15.6106 4.12933 16.0592 4.58597 16.3038L9.35995 18.9951C9.77507 19.2398 10.3147 19.2398 10.7714 18.9951L14.0094 17.1601L16.2095 15.8961L19.4476 14.0611C19.8627 13.8164 20.4024 13.8164 20.859 14.0611L23.3913 15.4883C23.8064 15.7329 24.097 16.1815 24.097 16.6708V19.566C24.097 20.0554 23.848 20.5039 23.3913 20.7485L20.859 22.2165C20.4438 22.4612 19.9042 22.4612 19.4476 22.2165L16.9153 20.7893C16.5002 20.5447 16.2095 20.0961 16.2095 19.6068V17.7311L14.0094 18.9951V20.8708C14.0094 21.3602 14.2585 21.8088 14.7151 22.0534L19.4891 24.7447C19.9042 24.9893 20.4438 24.9893 20.9005 24.7447L25.6745 22.0534C26.0896 21.8088 26.3802 21.3602 26.3802 20.8708V15.4475C26.3802 14.9582 26.1311 14.5097 25.6745 14.265L20.859 11.5329Z" fill="white"/>
</svg>
