<svg width="18" height="19" viewBox="0 0 18 19" fill="none" xmlns="http://www.w3.org/2000/svg">
<g id="vuesax/linear/share">
<g id="share">
<path id="Vector" d="M12.72 5.1275C14.22 6.17 15.255 7.8275 15.465 9.74" stroke="#606060" stroke-width="1.5" stroke-linecap="round" stroke-linejoin="round"/>
<path id="Vector_2" d="M2.61743 9.77748C2.81243 7.87248 3.83243 6.21498 5.31743 5.16498" stroke="#606060" stroke-width="1.5" stroke-linecap="round" stroke-linejoin="round"/>
<path id="Vector_3" d="M6.14246 16.205C7.01246 16.6475 8.00246 16.895 9.04496 16.895C10.05 16.895 10.995 16.67 11.8425 16.2575" stroke="#606060" stroke-width="1.5" stroke-linecap="round" stroke-linejoin="round"/>
<path id="Vector_4" d="M9.04496 6.27498C10.1965 6.27498 11.13 5.34149 11.13 4.18998C11.13 3.03847 10.1965 2.10498 9.04496 2.10498C7.89345 2.10498 6.95996 3.03847 6.95996 4.18998C6.95996 5.34149 7.89345 6.27498 9.04496 6.27498Z" stroke="#606060" stroke-width="1.5" stroke-linecap="round" stroke-linejoin="round"/>
<path id="Vector_5" d="M3.6226 15.44C4.77411 15.44 5.7076 14.5065 5.7076 13.355C5.7076 12.2035 4.77411 11.27 3.6226 11.27C2.47108 11.27 1.5376 12.2035 1.5376 13.355C1.5376 14.5065 2.47108 15.44 3.6226 15.44Z" stroke="#606060" stroke-width="1.5" stroke-linecap="round" stroke-linejoin="round"/>
<path id="Vector_6" d="M14.3775 15.44C15.529 15.44 16.4625 14.5065 16.4625 13.355C16.4625 12.2035 15.529 11.27 14.3775 11.27C13.226 11.27 12.2925 12.2035 12.2925 13.355C12.2925 14.5065 13.226 15.44 14.3775 15.44Z" stroke="#606060" stroke-width="1.5" stroke-linecap="round" stroke-linejoin="round"/>
</g>
</g>
</svg>
