<svg width="16" height="16" viewBox="0 0 16 16" fill="none" xmlns="http://www.w3.org/2000/svg">
<path d="M8 0.748047C3.8675 0.748047 0.5 4.11555 0.5 8.24805C0.5 12.3805 3.8675 15.748 8 15.748C12.1325 15.748 15.5 12.3805 15.5 8.24805C15.5 4.11555 12.1325 0.748047 8 0.748047ZM7.4375 5.24805C7.4375 4.94055 7.6925 4.68555 8 4.68555C8.3075 4.68555 8.5625 4.94055 8.5625 5.24805V8.99805C8.5625 9.30555 8.3075 9.56055 8 9.56055C7.6925 9.56055 7.4375 9.30555 7.4375 8.99805V5.24805ZM8.69 11.533C8.6525 11.6305 8.6 11.7055 8.5325 11.7805C8.4575 11.848 8.375 11.9005 8.285 11.938C8.195 11.9755 8.0975 11.998 8 11.998C7.9025 11.998 7.805 11.9755 7.715 11.938C7.625 11.9005 7.5425 11.848 7.4675 11.7805C7.4 11.7055 7.3475 11.6305 7.31 11.533C7.2725 11.443 7.25 11.3455 7.25 11.248C7.25 11.1505 7.2725 11.053 7.31 10.963C7.3475 10.873 7.4 10.7905 7.4675 10.7155C7.5425 10.648 7.625 10.5955 7.715 10.558C7.895 10.483 8.105 10.483 8.285 10.558C8.375 10.5955 8.4575 10.648 8.5325 10.7155C8.6 10.7905 8.6525 10.873 8.69 10.963C8.7275 11.053 8.75 11.1505 8.75 11.248C8.75 11.3455 8.7275 11.443 8.69 11.533Z" fill="#101010" fill-opacity="0.3"/>
</svg>
