<svg width="28" height="28" viewBox="0 0 28 28" fill="none" xmlns="http://www.w3.org/2000/svg">
<g id="Frame 1000002863">
<g clip-path="url(#clip0_300_378)">
<path id="Subtract" fill-rule="evenodd" clip-rule="evenodd" d="M27.9999 -0.00012207H-0.00012207V27.9999H27.9999V-0.00012207ZM14.8532 8.26532V11.9057L20.865 9.53507V12.2283C20.865 12.8061 20.528 13.3227 20.0204 13.5228L14.8531 15.5605V12.8726C14.8497 12.2985 14.5135 11.7862 14.0086 11.5871L9.68586 9.88244C9.17832 9.68229 8.84126 9.16566 8.84126 8.58793V5.89466L14.8532 8.26532ZM14.8532 15.5766V16.2781H14.8617V23.8856H12.3847V18.2579L9.68586 17.1937C9.17832 16.9935 8.84126 16.4769 8.84126 15.8992V13.2059L14.8532 15.5766Z" fill="white"/>
</g>
</g>
<defs>
<clipPath id="clip0_300_378">
<rect x="-0.00012207" y="-0.00012207" width="28" height="28" rx="6" fill="white"/>
</clipPath>
</defs>
</svg>
