<svg width="31" height="31" viewBox="0 0 31 31" fill="none" xmlns="http://www.w3.org/2000/svg">
<g id="Polygon">
<path id="Vector" d="M20.8587 11.5359C20.4435 11.2912 19.9038 11.2912 19.4473 11.5359L16.2092 13.4116L14.009 14.635L10.771 16.5107C10.3559 16.7553 9.81623 16.7553 9.35959 16.5107L6.78579 15.0427C6.37066 14.798 6.08007 14.3495 6.08007 13.8602V10.965C6.08007 10.4757 6.32915 10.0271 6.78579 9.78245L9.31807 8.35524C9.7332 8.11058 10.2729 8.11058 10.7295 8.35524L13.2618 9.78245C13.6769 10.0271 13.9675 10.4757 13.9675 10.965V12.8407L16.1677 11.5766V9.7009C16.1677 9.21156 15.9187 8.76301 15.462 8.51835L10.771 5.82705C10.3559 5.58239 9.81623 5.58239 9.35959 5.82705L4.5856 8.51835C4.12896 8.76301 3.87988 9.21156 3.87988 9.7009V15.1243C3.87988 15.6136 4.12896 16.0622 4.5856 16.3068L9.35959 18.9981C9.77471 19.2428 10.3144 19.2428 10.771 18.9981L14.009 17.1631L16.2092 15.899L19.4473 14.0641C19.8623 13.8194 20.402 13.8194 20.8587 14.0641L23.3909 15.4913C23.806 15.7359 24.0966 16.1845 24.0966 16.6738V19.569C24.0966 20.0584 23.8476 20.5069 23.3909 20.7515L20.8587 22.2195C20.4435 22.4642 19.9038 22.4642 19.4473 22.2195L16.915 20.7923C16.4998 20.5477 16.2092 20.0991 16.2092 19.6098V17.734L14.009 18.9981V20.8738C14.009 21.3632 14.2581 21.8117 14.7147 22.0564L19.4887 24.7477C19.9038 24.9923 20.4435 24.9923 20.9001 24.7477L25.6742 22.0564C26.0893 21.8117 26.3799 21.3632 26.3799 20.8738V15.4505C26.3799 14.9611 26.1308 14.5126 25.6742 14.268L20.8587 11.5359Z" fill="white"/>
</g>
</svg>
